<?xml version="1.0" encoding="UTF-8" standalone="no"?><!DOCTYPE svg PUBLIC "-//W3C//DTD SVG 1.1//EN" "http://www.w3.org/Graphics/SVG/1.1/DTD/svg11.dtd"><svg xmlns="http://www.w3.org/2000/svg" xmlns:xlink="http://www.w3.org/1999/xlink" version="1.1" width="70" height="70" viewBox="0 0 70 70">
<desc>Created with SVGMaker Editor 3.0.0</desc>
<defs>
</defs>
<path transform="translate(0,0)" style="fill: rgb(255,26,26)" stroke-linecap="round" d="M37.3439 1.7137C37.4672 1.8133 37.5868 1.9115 37.6988 2.0235 37.7186 2.4812 37.6672 2.8945 37.5839 3.343 37.429 4.2609 37.3951 5.1726 37.3789 6.102 37.3779 6.1558 37.3768 6.2096 37.3757 6.265 37.3378 8.1916 37.4497 9.9261 37.9767 11.7881 38.02 11.9447 38.0599 12.1019 38.0987 12.2597 38.2149 12.1915 38.2149 12.1915 38.3336 12.1219 40.6522 10.7791 43.3635 9.8956 46.0807 10.3806 46.4126 10.4324 46.7368 10.4334 47.0722 10.4338 47.143 10.4341 47.2138 10.4344 47.2868 10.4346 47.4367 10.435 47.5866 10.4352 47.7365 10.4352 47.9615 10.4354 48.1864 10.4368 48.4114 10.4384 49.7327 10.4426 50.9313 10.3456 52.1734 9.8606 52.2519 9.8308 52.2519 9.8308 52.3321 9.8003 53.2403 9.4506 54.1088 8.9928 54.784 8.2768 54.9723 8.1013 54.9723 8.1013 55.2922 8.1013 55.4884 8.4936 55.4128 8.9901 55.3025 9.3992 54.6962 11.0631 53.5671 11.9809 52.0072 12.7077 51.393 12.977 50.7433 13.1379 50.0942 13.2993 50.3237 13.4873 50.5291 13.5929 50.8098 13.6867 53.287 14.5536 55.6173 15.8607 57.6489 17.5184 57.761 17.6093 57.8745 17.6986 57.9881 17.7876 58.9778 18.5723 59.9128 19.4539 60.7302 20.4166 60.8301 20.53 60.8301 20.53 60.932 20.6456 61.9243 21.78 62.7511 23.0141 63.5052 24.3167 63.5953 24.4714 63.6871 24.6247 63.7803 24.7775 65.0196 26.8531 65.8372 29.192 66.408 31.5325 66.423 31.5915 66.438 31.6505 66.4535 31.7113 66.5651 32.155 66.6521 32.6007 66.7279 33.0519 66.7426 33.1386 66.7572 33.2253 66.7724 33.3147 67.523 37.9926 67.179 43.1471 65.5077 47.6047 65.4462 47.7724 65.3904 47.9413 65.3353 48.1112 64.2492 51.3952 62.5659 54.4465 60.4903 57.2028 60.4518 57.2539 60.4134 57.305 60.3738 57.3577 59.9206 57.9562 59.4423 58.5217 58.929 59.0693 58.7682 59.242 58.6135 59.417 58.461 59.5969 57.861 60.2881 57.194 60.9349 56.4918 61.5212 56.4234 61.5798 56.3551 61.6383 56.2846 61.6987 55.2615 62.5666 54.1839 63.3585 53.053 64.0803 52.9653 64.1364 52.8776 64.1926 52.7872 64.2505 50.9166 65.4206 48.8893 66.372 46.8154 67.1191 46.715 67.1567 46.6146 67.1944 46.5143 67.2322 46.4014 67.2745 46.2885 67.3168 46.1756 67.359 46.1081 67.3844 46.0406 67.4099 45.971 67.4361 42.5431 68.7079 38.8596 69.2316 35.2201 69.2192 34.949 69.2183 34.6779 69.2188 34.4068 69.2197 33.1767 69.2233 31.9622 69.1966 30.7414 69.0384 30.6585 69.0277 30.6585 69.0277 30.5739 69.0168 30.2238 68.9703 29.8753 68.9161 29.5269 68.8585 29.475 68.8499 29.423 68.8414 29.3695 68.8326 22.1708 67.6419 15.0278 64.1231 10.2691 58.4824 10.2064 58.4108 10.1437 58.3393 10.0792 58.2656 6.3268 53.9564 3.8802 48.466 2.9269 42.8532 2.9113 42.7615 2.8957 42.6699 2.8796 42.5754 2.6283 41.0049 2.5593 39.4441 2.562 37.8551 2.562 37.7583 2.5621 37.6615 2.5621 37.5618 2.5652 36.0853 2.6217 34.6632 2.9119 33.2118 2.9294 33.121 2.947 33.0301 2.9651 32.9366 3.8835 28.2736 5.9086 23.7921 9.1467 20.2742 9.2931 20.1146 9.4341 19.9518 9.5744 19.7869 10.1531 19.1234 10.7905 18.4986 11.4686 17.9376 11.5473 17.8709 11.626 17.8042 11.707 17.7355 14.0668 15.7678 16.7627 14.4365 19.6256 13.3793 19.6256 13.3529 19.6256 13.3265 19.6256 13.2993 19.5481 13.2827 19.4705 13.2661 19.3907 13.249 18.5679 13.0636 17.8226 12.7924 17.0665 12.4196 16.9808 12.3778 16.895 12.3359 16.8066 12.2928 15.5866 11.6415 14.7916 10.5986 14.3476 9.3008 14.2781 9.0668 14.2546 8.8551 14.2526 8.6111 14.2515 8.549 14.2503 8.487 14.2492 8.423 14.2676 8.2612 14.2676 8.2612 14.4275 8.1013 14.718 8.1244 14.8359 8.254 15.0223 8.4661 16.1852 9.6722 18.0658 10.2959 19.7165 10.336 19.8461 10.3376 19.9758 10.3391 20.1054 10.3404 20.2257 10.3427 20.2257 10.3427 20.3483 10.345 21.26 10.3615 22.1628 10.366 23.0693 10.2604 23.762 10.1817 24.4525 10.1603 25.1491 10.1565 25.2662 10.1558 25.3834 10.1548 25.5005 10.1532 27.5969 10.1287 29.5888 10.7722 31.2415 12.081 31.3886 12.195 31.3886 12.195 31.6211 12.2597 31.6353 12.1544 31.6353 12.1544 31.6498 12.047 31.6995 11.7879 31.7755 11.5858 31.881 11.345 32.1663 10.6272 32.3058 9.8747 32.4568 9.1192 32.4852 8.9784 32.5145 8.8378 32.545 8.6974 32.7111 7.9202 32.753 7.1466 32.7513 6.3535 32.7514 6.2746 32.7514 6.1957 32.7515 6.1144 32.7516 5.9492 32.7514 5.7839 32.7511 5.6187 32.7507 5.3671 32.7511 5.1155 32.7516 4.8639 32.7515 4.7023 32.7514 4.5408 32.7513 4.3792 32.7515 4.2676 32.7515 4.2676 32.7518 4.1538 32.7503 3.7293 32.7214 3.3233 32.6607 2.9032 32.6452 2.7503 32.633 2.5969 32.6257 2.4434 32.6209 2.3712 32.616 2.2991 32.611 2.2247 32.6607 2.0235 32.6607 2.0235 32.8694 1.848 34.1246 1.1799 36.1279 0.8167 37.3439 1.7137Z"/>
<path transform="translate(0,0)" style="fill: rgb(1,149,48)" stroke-linecap="round" d="M37.3439 1.7135C37.4672 1.8132 37.5868 1.9113 37.6988 2.0234 37.7185 2.4811 37.6672 2.8943 37.5838 3.3429 37.429 4.2608 37.3951 5.1724 37.3789 6.1018 37.3779 6.1556 37.3768 6.2094 37.3757 6.2649 37.3378 8.1915 37.4497 9.9259 37.9767 11.788 38.02 11.9446 38.0599 12.1018 38.0987 12.2595 38.2149 12.1913 38.2149 12.1913 38.3336 12.1218 40.6522 10.779 43.3635 9.8954 46.0807 10.3804 46.4126 10.4323 46.7368 10.4332 47.0722 10.4337 47.143 10.4339 47.2138 10.4342 47.2868 10.4345 47.4367 10.4349 47.5866 10.4351 47.7365 10.435 47.9615 10.4352 48.1864 10.4367 48.4113 10.4382 49.7327 10.4424 50.9313 10.3455 52.1734 9.8604 52.2258 9.8405 52.2781 9.8206 52.3321 9.8001 53.2403 9.4505 54.1088 8.9927 54.784 8.2766 54.9723 8.1011 54.9723 8.1011 55.2922 8.1011 55.4884 8.4934 55.4128 8.99 55.3025 9.399 54.7141 11.0139 53.6649 11.8902 52.1684 12.6344 50.9035 13.2142 49.5689 13.4557 48.1934 13.5955 48.0185 13.6143 48.0185 13.6143 47.8672 13.6599 47.6795 13.7025 47.5135 13.7086 47.3211 13.7081 47.2106 13.7081 47.2106 13.7081 47.0979 13.7081 47.0191 13.7076 46.9403 13.7072 46.8591 13.7068 46.7779 13.7067 46.6967 13.7066 46.6131 13.7065 46.354 13.706 46.0949 13.705 45.8358 13.704 45.66 13.7036 45.4842 13.7032 45.3084 13.7029 44.8778 13.702 44.4471 13.7007 44.0164 13.699 44.0164 13.7518 44.0164 13.8046 44.0164 13.8589 44.0794 13.8738 44.0794 13.8738 44.1436 13.8889 45.9992 14.3829 47.7617 15.5882 49.1345 16.8978 49.1808 16.9419 49.227 16.9859 49.2747 17.0313 51.2551 18.9305 53.0935 21.6629 53.2327 24.4959 53.2458 25.2455 53.2458 25.2455 53.053 25.5345 52.8787 25.5842 52.8787 25.5842 52.6532 25.5345 52.442 25.37 52.2652 25.1757 52.0834 24.9798 51.9759 24.8682 51.8682 24.7568 51.7601 24.6458 51.7076 24.5918 51.6551 24.5379 51.601 24.4822 51.2824 24.1639 50.9275 23.8931 50.574 23.6153 50.4768 23.5352 50.3799 23.4549 50.2831 23.3744 47.6761 21.2101 44.6832 19.6769 41.6164 18.2748 41.0508 18.0158 40.4896 17.7483 39.9293 17.478 39.826 17.4282 39.7227 17.3784 39.6193 17.3287 39.4763 17.2599 39.3334 17.1909 39.1904 17.1218 39.1088 17.0823 39.0271 17.0429 38.943 17.0022 38.7384 16.8978 38.7384 16.8978 38.4985 16.7378 38.5027 16.8476 38.5027 16.8476 38.5069 16.9596 38.5064 17.388 38.4323 17.8055 38.3636 18.2273 38.3493 18.3153 38.335 18.4032 38.3203 18.4939 38.0457 20.1316 37.5946 21.6903 37.0191 23.2454 36.9897 23.3253 36.9602 23.4052 36.93 23.4874 36.437 24.7971 36.437 24.7971 36.1794 25.0547 35.9475 25.1038 35.8433 25.1167 35.6196 25.0547 35.3277 24.8464 35.087 24.5937 34.8399 24.335 34.769 24.2622 34.6982 24.1895 34.6252 24.1145 34.0507 23.5126 33.5648 22.8903 33.1405 22.1758 33.1083 22.1222 33.0761 22.0686 33.043 22.0134 32.0793 20.3943 31.3989 18.6897 31.1413 16.8178 30.857 16.9273 30.5864 17.0515 30.315 17.1899 30.2324 17.2317 30.1497 17.2736 30.0646 17.3167 29.9762 17.3616 29.8878 17.4064 29.7968 17.4526 29.0994 17.804 28.3988 18.1446 27.6876 18.4672 25.7349 19.3541 23.8209 20.2779 22.0247 21.4561 21.9646 21.4954 21.9045 21.5348 21.8426 21.5754 20.9777 22.1459 20.1587 22.7537 19.365 23.4194 19.1645 23.5862 18.9598 23.7476 18.7559 23.9102 18.3903 24.2088 18.0603 24.5339 17.7291 24.8698 17.4893 25.1125 17.2633 25.3338 16.9866 25.5345 16.7733 25.5299 16.6593 25.5271 16.5068 25.3746 16.3362 22.5757 17.6828 20.0565 19.4778 17.978 19.6576 17.7751 19.8404 17.5757 20.0254 17.3776 20.0862 17.3126 20.1469 17.2475 20.2094 17.1805 21.3623 15.9861 22.7363 15.1457 24.1939 14.3737 24.2726 14.3317 24.3513 14.2897 24.4324 14.2465 24.8078 14.0513 25.1186 13.9098 25.5434 13.8589 25.5698 13.8061 25.5961 13.7534 25.6233 13.699 25.4907 13.7009 25.4907 13.7009 25.3553 13.7028 18.1307 13.7962 18.1307 13.7962 15.7292 11.4842 15.6391 11.393 15.6391 11.393 15.5471 11.2999 15.4895 11.244 15.4319 11.1881 15.3725 11.1306 14.6693 10.4047 14.2533 9.4239 14.2464 8.4144 14.2676 8.261 14.2676 8.261 14.4275 8.1011 14.718 8.1243 14.8359 8.2538 15.0223 8.466 16.1852 9.672 18.0658 10.2957 19.7165 10.3359 19.8461 10.3375 19.9758 10.3389 20.1054 10.3402 20.2256 10.3425 20.2256 10.3425 20.3483 10.3449 21.26 10.3613 22.1628 10.3658 23.0693 10.2603 23.762 10.1816 24.4525 10.1602 25.1491 10.1564 25.2662 10.1557 25.3834 10.1546 25.5005 10.1531 27.5969 10.1286 29.5888 10.772 31.2415 12.0808 31.3886 12.1949 31.3886 12.1949 31.6211 12.2595 31.6353 12.1542 31.6353 12.1542 31.6498 12.0468 31.6995 11.7878 31.7755 11.5856 31.881 11.3449 32.1663 10.627 32.3058 9.8745 32.4568 9.119 32.4852 8.9782 32.5145 8.8376 32.545 8.6972 32.7111 7.9201 32.753 7.1464 32.7513 6.3533 32.7514 6.2744 32.7514 6.1955 32.7515 6.1143 32.7516 5.949 32.7514 5.7838 32.7511 5.6185 32.7507 5.3669 32.7511 5.1153 32.7516 4.8637 32.7515 4.7022 32.7514 4.5406 32.7513 4.379 32.7515 4.2674 32.7515 4.2674 32.7518 4.1536 32.7503 3.7291 32.7214 3.3231 32.6607 2.903 32.6452 2.7501 32.633 2.5968 32.6257 2.4432 32.6209 2.3711 32.616 2.2989 32.611 2.2245 32.6607 2.0234 32.6607 2.0234 32.8694 1.8478 34.1246 1.1797 36.1279 0.8166 37.3439 1.7135Z"/>
<path transform="translate(0,0)" style="fill: rgb(253,251,251)" stroke-linecap="round" d="M32.0017 28.2487C32.4396 28.222 32.6743 28.3124 33.0189 28.6022 33.3103 28.9175 33.4385 29.2118 33.5412 29.6214 33.5666 29.7172 33.5666 29.7172 33.5924 29.8149 33.6559 30.0575 33.7173 30.3005 33.7786 30.5436 33.8053 30.6484 33.832 30.7532 33.8595 30.8612 34.0714 31.6941 34.2797 32.5279 34.4873 33.3619 34.5551 33.6337 34.623 33.9055 34.6909 34.1772 35.3293 36.7306 35.3293 36.7306 35.5934 37.8653 35.7052 38.3435 35.8373 38.8129 35.9763 39.284 36.0866 39.679 36.1772 40.0777 36.2687 40.4774 36.3787 40.9526 36.5106 41.4192 36.6482 41.8872 36.7607 42.2919 36.8551 42.7001 36.9455 43.1103 37.0139 43.4137 37.0944 43.7062 37.1956 44.0004 37.3289 44.3897 37.4233 44.7824 37.5138 45.1835 37.6736 45.8735 37.8497 46.5577 38.0361 47.241 38.2395 47.9885 38.4377 48.7371 38.6269 49.4884 38.6597 49.6174 38.6597 49.6174 38.6932 49.749 38.713 49.8283 38.7328 49.9075 38.7532 49.9892 38.7707 50.0588 38.7881 50.1284 38.8061 50.2001 38.8432 50.38 38.8432 50.38 38.8432 50.6332 38.8989 50.6332 38.9546 50.6332 39.012 50.6332 39.0204 50.5646 39.0287 50.4961 39.0373 50.4255 39.109 50.0634 39.2324 49.7407 39.3682 49.3984 39.396 49.3269 39.4239 49.2555 39.4526 49.1818 39.5129 49.0271 39.5735 48.8725 39.6342 48.718 39.7976 48.3023 39.9593 47.886 40.1212 47.4698 40.1549 47.3835 40.1885 47.2972 40.2231 47.2082 40.5927 46.2579 40.953 45.3042 41.3122 44.3499 41.3422 44.2703 41.3722 44.1907 41.4031 44.1086 41.4323 44.0309 41.4616 43.9532 41.4918 43.8731 41.5484 43.7227 41.6051 43.5722 41.6617 43.4217 41.6885 43.3507 41.7152 43.2797 41.7428 43.2065 42.2724 41.8013 42.2724 41.8013 42.552 41.1107 42.6976 40.7485 42.8367 40.384 42.974 40.0186 42.9957 39.961 43.0174 39.9034 43.0398 39.8441 43.1451 39.5628 43.2476 39.281 43.344 38.9965 43.8146 37.6173 43.8146 37.6173 44.3404 37.2542 44.7391 37.0588 45.1639 37.0641 45.596 37.1276 46.3157 37.467 46.75 38.2449 47.1701 38.8906 47.2222 38.9698 47.2742 39.049 47.3278 39.1306 47.493 39.3824 47.6577 39.6346 47.8223 39.8867 47.9862 40.1368 48.1501 40.3868 48.3141 40.6368 48.4193 40.7972 48.5243 40.9577 48.6293 41.1183 48.957 41.6196 49.2888 42.1175 49.6278 42.6112 49.7321 42.7831 49.7321 42.7831 49.7321 42.9519 49.8353 42.9511 49.9385 42.9504 50.0448 42.9496 51.0185 42.9428 51.9921 42.9377 52.9658 42.9344 53.4664 42.9326 53.9669 42.9302 54.4674 42.9264 54.9507 42.9227 55.434 42.9207 55.9173 42.9198 56.1014 42.9192 56.2856 42.918 56.4697 42.9162 56.7281 42.9137 56.9865 42.9134 57.2449 42.9135 57.3207 42.9123 57.3964 42.9111 57.4744 42.9099 57.9677 42.9131 58.3562 43.0005 58.764 43.2895 59.0965 43.6616 59.151 44.0346 59.1287 44.525 59.0742 44.9269 58.9295 45.1577 58.6321 45.4261 58.3553 45.6178 58.2173 45.6636 57.8855 45.6643 57.7682 45.6648 57.7682 45.6648 57.6485 45.6654 57.5624 45.6653 57.4763 45.6653 57.3876 45.6653 57.2972 45.6655 57.2067 45.6658 57.1135 45.6661 56.8131 45.6669 56.5127 45.6671 56.2122 45.6672 56.0038 45.6674 55.7954 45.6677 55.587 45.668 55.1494 45.6685 54.7118 45.6687 54.2742 45.6686 53.7137 45.6686 53.1532 45.6698 52.5927 45.6712 52.1619 45.6722 51.7311 45.6723 51.3003 45.6723 51.0937 45.6724 50.8871 45.6728 50.6805 45.6734 50.3912 45.6743 50.1019 45.674 49.8125 45.6735 49.7273 45.674 49.6421 45.6745 49.5543 45.6749 49.0096 45.6725 48.5231 45.6661 48.0826 45.3113 47.8098 44.9837 47.5754 44.6382 47.3413 44.2823 47.2396 44.1298 47.1378 43.9773 47.0361 43.8248 46.877 43.585 46.7181 43.3451 46.5593 43.1051 46.4054 42.8729 46.2509 42.6412 46.0962 42.4095 46.0486 42.3369 46.0009 42.2644 45.9518 42.1897 45.9076 42.1235 45.8633 42.0572 45.8177 41.989 45.7789 41.9303 45.74 41.8716 45.7 41.8111 45.6657 41.7697 45.6314 41.7283 45.596 41.6857 45.5403 41.6857 45.4846 41.6857 45.4272 41.6857 45.233 42.0522 45.0934 42.4143 44.9682 42.8094 44.833 43.2285 44.6827 43.6304 44.4957 44.0291 44.3616 44.3402 44.2652 44.6635 44.1611 44.9856 44.0869 45.2013 44.0037 45.4041 43.9078 45.6108 43.7758 45.896 43.6721 46.1821 43.5755 46.4813 43.4648 46.8232 43.3425 47.1534 43.2009 47.4836 43.0016 47.9502 42.8313 48.4234 42.6686 48.9037 42.5502 49.2486 42.4186 49.5851 42.2765 49.9209 42.0671 50.4213 41.8709 50.9256 41.6795 51.4331 41.6459 51.5217 41.6123 51.6104 41.5777 51.7017 41.4715 51.9821 41.3655 52.2625 41.2595 52.543 41.1891 52.7288 41.1188 52.9147 41.0484 53.1005 40.9968 53.237 40.9968 53.237 40.9441 53.3762 40.8756 53.557 40.8069 53.7376 40.7379 53.9182 40.5827 54.3251 40.4292 54.7323 40.2824 55.1424 40.2569 55.2122 40.2313 55.2819 40.205 55.3537 40.1586 55.4807 40.1132 55.6081 40.0694 55.736 39.908 56.1708 39.7207 56.3677 39.3497 56.6263 38.9002 56.7761 38.4068 56.8163 37.9658 56.6214 37.2639 56.1408 37.1601 55.2756 36.9546 54.4949 36.9266 54.3894 36.8986 54.284 36.8697 54.1753 36.5168 52.8375 36.1857 51.494 35.8525 50.1512 35.6194 49.2122 35.3826 48.2749 35.1292 47.3412 34.6676 45.6068 34.2169 43.8694 33.784 42.1277 33.6206 41.4719 33.4489 40.8187 33.2722 40.1664 33.1589 39.7445 33.0464 39.3224 32.9345 38.9002 32.9156 38.8288 32.8966 38.7574 32.8771 38.6838 32.6379 37.7803 32.4039 36.8757 32.1854 35.967 32.1672 35.8921 32.1491 35.8172 32.1303 35.7401 32.1057 35.6363 32.1057 35.6363 32.0805 35.5304 32.0661 35.4698 32.0516 35.4092 32.0367 35.3468 32.006 35.1862 32.006 35.1862 32.006 34.9329 31.9503 34.9329 31.8946 34.9329 31.8372 34.9329 31.8146 35.0409 31.7919 35.1488 31.7686 35.26 31.6777 35.6935 31.5447 36.1136 31.4151 36.5367 31.3867 36.6299 31.3582 36.7232 31.3289 36.8192 31.2332 37.1314 31.137 37.4434 31.0406 37.7554 30.9922 37.9131 30.9922 37.9131 30.9428 38.0741 30.7722 38.6259 30.5913 39.1707 30.3904 39.7122 30.2937 39.9799 30.2151 40.251 30.1384 40.5251 29.9326 41.2441 29.7038 41.9555 29.4737 42.667 29.456 42.7217 29.4384 42.7764 29.4202 42.8328 29.2319 43.4156 29.0411 43.9975 28.8462 44.5781 28.6856 45.0583 28.5309 45.54 28.3787 46.023 28.3137 46.2279 28.2486 46.4328 28.1836 46.6376 28.1393 46.7775 28.0954 46.9174 28.0518 47.0575 27.9875 47.2633 27.9221 47.4688 27.8564 47.6742 27.8373 47.7364 27.8182 47.7986 27.7986 47.8626 27.653 48.3128 27.4665 48.635 27.0802 48.9259 26.8154 49.0487 26.6157 49.0745 26.3242 49.0822 26.1889 49.089 26.1889 49.089 26.0508 49.096 25.5217 48.975 25.2196 48.6379 24.9206 48.197 24.7501 47.9118 24.5887 47.6225 24.4302 47.3306 24.3717 47.2252 24.313 47.1198 24.2542 47.0145 24.1361 46.8027 24.0186 46.5905 23.9016 46.3781 23.6627 45.9453 23.4159 45.517 23.1693 45.0885 23.0193 44.8268 22.8699 44.5647 22.7209 44.3024 22.6808 44.2326 22.6407 44.1628 22.5994 44.0909 22.5606 44.0226 22.5218 43.9544 22.4819 43.884 22.4467 43.8226 22.4116 43.7611 22.3754 43.6978 22.2989 43.5428 22.2989 43.5428 22.2989 43.3739 22.2432 43.3739 22.1874 43.3739 22.13 43.3739 22.1072 43.4232 22.0843 43.4724 22.0607 43.5232 21.9618 43.7105 21.8531 43.861 21.7195 44.0251 21.6725 44.0831 21.6254 44.141 21.5769 44.2007 21.5279 44.2604 21.4789 44.3201 21.4284 44.3816 21.3563 44.4706 21.3563 44.4706 21.2828 44.5614 20.4277 45.609 20.4277 45.609 19.9393 45.6754 19.8814 45.676 19.8234 45.6766 19.7637 45.6773 19.6968 45.6784 19.6298 45.6794 19.5608 45.6806 19.4881 45.6809 19.4154 45.6812 19.3405 45.6815 19.2633 45.6825 19.1861 45.6835 19.1066 45.6845 18.8513 45.6874 18.5961 45.689 18.3408 45.6903 18.2099 45.6911 18.2099 45.6911 18.0762 45.692 17.6141 45.695 17.1519 45.697 16.6898 45.6982 16.2131 45.6996 15.7365 45.7045 15.2599 45.7103 14.8927 45.7141 14.5256 45.7152 14.1584 45.7156 13.9827 45.7163 13.8071 45.718 13.6314 45.7206 13.3851 45.7241 13.139 45.7239 12.8927 45.7228 12.8207 45.7246 12.7486 45.7265 12.6744 45.7284 12.162 45.7204 11.9087 45.5617 11.5417 45.2085 11.2389 44.872 11.1937 44.5198 11.2032 44.0786 11.2864 43.6442 11.5817 43.3296 11.9268 43.0707 12.2341 42.9204 12.4979 42.9221 12.8318 42.9315 12.9299 42.9326 12.9299 42.9326 13.03 42.9338 13.1716 42.9355 13.3131 42.9377 13.4547 42.9404 13.6794 42.9443 13.9041 42.946 14.1288 42.947 14.7677 42.9498 15.4065 42.9537 16.0452 42.966 16.4365 42.9734 16.8276 42.9758 17.219 42.975 17.3675 42.9756 17.5159 42.9781 17.6643 42.9825 18.5377 43.03 18.5377 43.03 19.2827 42.6455 19.5029 42.4015 19.6781 42.1339 19.851 41.8546 19.9306 41.7503 20.0115 41.647 20.0943 41.5453 20.1568 41.4628 20.2192 41.3803 20.2836 41.2953 20.3534 41.2039 20.4233 41.1124 20.4933 41.021 20.5599 40.934 20.6265 40.8469 20.6951 40.7572 20.8175 40.5985 20.9406 40.4401 21.0644 40.2824 21.1155 40.2169 21.1667 40.1514 21.2193 40.0839 21.572 39.685 21.8432 39.5924 22.3622 39.5491 22.7562 39.555 23.0791 39.6806 23.3962 39.9131 23.7547 40.2965 23.9875 40.7655 24.2403 41.2215 24.3373 41.3951 24.4343 41.5686 24.5314 41.7421 24.5808 41.8304 24.6301 41.9187 24.6809 42.0096 24.8284 42.2716 24.9778 42.5323 25.1283 42.7926 25.175 42.8736 25.2217 42.9545 25.2699 43.0379 25.3595 43.1929 25.4494 43.3478 25.5396 43.5025 25.5797 43.5721 25.6198 43.6416 25.6611 43.7132 25.6965 43.7742 25.732 43.8353 25.7685 43.8981 25.8441 44.0492 25.8441 44.0492 25.8441 44.218 25.8998 44.218 25.9555 44.218 26.0129 44.218 26.0246 44.1703 26.0363 44.1226 26.0484 44.0735 26.2758 43.1759 26.5265 42.2782 26.858 41.4134 26.966 41.1103 27.0535 40.8027 27.1419 40.4934 27.3018 39.9354 27.4817 39.3881 27.6816 38.8431 27.8393 38.4099 27.9756 37.9716 28.1098 37.5306 28.2202 37.1709 28.3334 36.8122 28.4473 36.4536 28.4791 36.3533 28.4791 36.3533 28.5115 36.251 28.5991 35.9749 28.6866 35.6988 28.7744 35.4228 29.0238 34.6386 29.2674 33.8534 29.4975 33.0634 29.6366 32.5866 29.7848 32.1133 29.938 31.6409 30.1414 31.0097 30.3369 30.3772 30.5132 29.7378 30.6728 29.1747 30.87 28.724 31.3307 28.349 31.5591 28.283 31.7668 28.2713 32.0017 28.2487Z"/>
<path transform="translate(0,0)" style="fill: rgb(206,78,52)" stroke-linecap="round" d="M44.1765 13.8589C44.5459 13.8589 44.9154 13.8589 45.296 13.8589 45.2169 13.8985 45.2169 13.8985 45.1361 13.9389 45.1361 13.9917 45.1361 14.0445 45.1361 14.0988 45.2524 14.131 45.2524 14.131 45.371 14.1638 45.4518 14.1952 45.5326 14.2265 45.6159 14.2588 45.6423 14.338 45.6687 14.4171 45.6959 14.4987 45.1798 14.3341 44.6774 14.1449 44.1765 13.9389 44.1765 13.9125 44.1765 13.8861 44.1765 13.8589Z"/>
<path transform="translate(0,0)" style="fill: rgb(54,127,77)" stroke-linecap="round" d="M18.186 19.6968C18.2498 19.8823 18.2751 19.9863 18.2179 20.1766 18.0399 20.5244 17.8796 20.7541 17.5462 20.9763 17.6718 20.4992 17.9261 20.1103 18.186 19.6968Z"/>
<path transform="translate(0,0)" style="fill: rgb(231,75,59)" stroke-linecap="round" d="M6.0305 24.575C6.0919 24.7554 6.1229 24.858 6.0608 25.0413 6.0336 25.0899 6.0063 25.1385 5.9783 25.1885 5.9492 25.2416 5.92 25.2947 5.89 25.3494 5.8589 25.4039 5.8277 25.4585 5.7955 25.5147 5.7647 25.5704 5.7338 25.6262 5.702 25.6837 5.6257 25.8211 5.5483 25.9578 5.4707 26.0944 5.4179 26.0944 5.3651 26.0944 5.3107 26.0944 5.4221 25.7244 5.5742 25.4029 5.7606 25.0648 5.8111 24.9727 5.8616 24.8805 5.9136 24.7856 5.9522 24.7161 5.9907 24.6466 6.0305 24.575Z"/>
<path transform="translate(0,0)" style="fill: rgb(227,70,48)" stroke-linecap="round" d="M24.5037 13.8589C24.6884 13.8853 24.8731 13.9117 25.0635 13.9389 24.8135 14.1504 24.5766 14.2463 24.2638 14.3387 24.2638 14.286 24.2638 14.2332 24.2638 14.1788 24.3166 14.1788 24.3693 14.1788 24.4237 14.1788 24.4501 14.0732 24.4765 13.9677 24.5037 13.8589Z"/>
<path transform="translate(0,0)" style="fill: rgb(234,87,67)" stroke-linecap="round" d="M18.5059 13.8589C18.5059 13.9381 18.5059 14.0173 18.5059 14.0988 18.2034 14.2457 18.0304 14.2714 17.7062 14.1788 17.9258 13.9592 18.1929 13.8589 18.5059 13.8589ZM17.7062 14.2588C17.8661 14.3387 17.8661 14.3387 17.8661 14.3387Z"/>
<path transform="translate(0,0)" style="fill: rgb(233,78,61)" stroke-linecap="round" d="M10.029 19.2969C10.0554 19.3761 10.0818 19.4553 10.109 19.5368 10.0195 19.6306 9.9294 19.7238 9.8391 19.8167 9.789 19.8687 9.7389 19.9207 9.6872 19.9742 9.5492 20.0966 9.5492 20.0966 9.3892 20.0966 9.5213 19.7534 9.7681 19.5465 10.029 19.2969Z"/>
<path transform="translate(0,0)" style="fill: rgb(190,80,53)" stroke-linecap="round" d="M30.9813 16.7379C31.0605 16.7643 31.1396 16.7907 31.2212 16.8178 31.2476 17.0817 31.274 17.3456 31.3012 17.6175 31.2484 17.6175 31.1956 17.6175 31.1412 17.6175 31.1264 17.5087 31.1264 17.5087 31.1112 17.3976 31.0676 17.1705 31.0155 17.0157 30.9013 16.8178 30.9277 16.7915 30.9541 16.7651 30.9813 16.7379Z"/>
<path transform="translate(0,0)" style="fill: rgb(233,74,53)" stroke-linecap="round" d="M51.7737 14.0989C52.1695 14.2572 52.1695 14.2572 52.5734 14.4187 52.5734 14.4715 52.5734 14.5243 52.5734 14.5787 52.2582 14.5336 52.0335 14.4444 51.7737 14.2588 51.7737 14.206 51.7737 14.1532 51.7737 14.0989Z"/>
<path transform="translate(0,0)" style="fill: rgb(233,91,74)" stroke-linecap="round" d="M19.1456 13.619C19.1456 13.6982 19.1456 13.7774 19.1456 13.8589 18.9157 13.9089 18.9157 13.9089 18.6658 13.9389 18.613 13.8861 18.5603 13.8333 18.5059 13.779 18.7383 13.6785 18.8894 13.619 19.1456 13.619Z"/>
<path transform="translate(0,0)" style="fill: rgb(65,124,72)" stroke-linecap="round" d="M40.018 17.3776C40.3129 17.4175 40.4662 17.4657 40.6577 17.6975 40.5786 17.7371 40.5786 17.7371 40.4978 17.7775 40.3353 17.7028 40.1751 17.623 40.018 17.5376 40.018 17.4848 40.018 17.432 40.018 17.3776Z"/>
<path transform="translate(0,0)" style="fill: rgb(214,69,47)" stroke-linecap="round" d="M23.9439 14.5787C23.4041 14.8985 23.4041 14.8985 23.2241 14.8985 23.3041 14.6586 23.3041 14.6586 23.4491 14.5587 23.6511 14.4894 23.7457 14.5079 23.9439 14.5787Z"/>
<path transform="translate(0,0)" style="fill: rgb(69,155,101)" stroke-linecap="round" d="M14.4274 8.101C14.5329 8.1274 14.6385 8.1538 14.7473 8.181 14.7473 8.2602 14.7473 8.3394 14.7473 8.4209 14.5889 8.4209 14.4306 8.4209 14.2674 8.4209 14.3202 8.3154 14.373 8.2098 14.4274 8.101Z"/>
<path transform="translate(0,0)" style="fill: rgb(181,88,50)" stroke-linecap="round" d="M38.4186 17.2977C38.445 17.2977 38.4713 17.2977 38.4985 17.2977 38.5791 17.7003 38.5764 17.9566 38.4186 18.3373 38.3922 18.3373 38.3658 18.3373 38.3386 18.3373 38.3325 17.9761 38.3304 17.6503 38.4186 17.2977Z"/>
<path transform="translate(0,0)" style="fill: rgb(210,70,52)" stroke-linecap="round" d="M46.7355 15.0585C47.0054 15.1023 47.1419 15.1429 47.3753 15.2984 47.3753 15.3512 47.3753 15.404 47.3753 15.4583 47.1054 15.3635 46.9237 15.2764 46.7355 15.0585Z"/>
</svg>