<?xml version="1.0" encoding="UTF-8"?>
<svg version="1.1" xmlns="http://www.w3.org/2000/svg" width="1254" height="1254">
<path d="M0 0 C413.82 0 827.64 0 1254 0 C1254 413.82 1254 827.64 1254 1254 C840.18 1254 426.36 1254 0 1254 C0 840.18 0 426.36 0 0 Z " fill="#FDFDFD" transform="translate(0,0)"/>
<path d="M0 0 C1.54091497 1.24637388 3.03667422 2.47417422 4.4375 3.875 C4.68441477 9.59835784 4.04260453 14.76608982 3 20.375 C1.06332751 31.85291452 0.63953245 43.25265285 0.4375 54.875 C0.4241864 55.54774963 0.4108728 56.22049927 0.39715576 56.91363525 C-0.07686595 81.00505151 1.32207559 102.69348096 7.91259766 125.97827148 C8.45446735 127.93631132 8.95245052 129.90219142 9.4375 131.875 C10.8915625 131.02228516 10.8915625 131.02228516 12.375 130.15234375 C41.36903854 113.36093736 75.27310768 102.31224792 109.25097656 108.37719727 C113.40097605 109.02551545 117.45446882 109.03739629 121.6484375 109.04296875 C122.53423492 109.04629715 123.42003235 109.04962555 124.33267212 109.05305481 C126.20696497 109.0581049 128.08126676 109.06046373 129.95556641 109.06030273 C132.768714 109.06246632 135.58145411 109.08057872 138.39453125 109.09960938 C154.91804346 109.15262902 169.90553327 107.94012782 185.4375 101.875 C186.42000732 101.50181641 186.42000732 101.50181641 187.42236328 101.12109375 C198.77931089 96.74860026 209.63978058 91.02383685 218.08203125 82.0703125 C220.4375 79.875 220.4375 79.875 224.4375 79.875 C226.89036568 84.78073136 225.94571728 90.99026595 224.56640625 96.10546875 C216.98469692 116.91166779 202.86516795 128.3892698 183.35913086 137.47680664 C175.67935309 140.84513022 167.55513946 142.85721333 159.4375 144.875 C162.30810017 147.22619771 164.87576958 148.54634788 168.38671875 149.71875 C199.36333138 160.55928121 228.50260941 176.90436205 253.90722656 197.6328125 C255.3087179 198.77046213 256.72776817 199.88639176 258.1484375 201 C270.52498122 210.81203466 282.21653419 221.83569758 292.4375 233.875 C293.68660156 235.29232422 293.68660156 235.29232422 294.9609375 236.73828125 C307.37001462 250.92329921 317.70859213 266.35501937 327.13867188 282.64453125 C328.26487746 284.57855648 329.41332296 286.49535105 330.578125 288.40625 C346.07528591 314.3608447 356.29954728 343.60823131 363.4375 372.875 C363.62505859 373.61282715 363.81261719 374.3506543 364.00585938 375.11083984 C365.40161791 380.65986182 366.4892103 386.23296248 367.4375 391.875 C367.62086914 392.95942383 367.80423828 394.04384766 367.99316406 395.16113281 C377.37972192 453.65638256 373.07760466 518.11179538 352.17871094 573.85327148 C351.40980137 575.95055083 350.71254503 578.06275178 350.0234375 580.1875 C336.44247906 621.25288993 315.39220646 659.4074161 289.4375 693.875 C288.95684082 694.51405273 288.47618164 695.15310547 287.98095703 695.81152344 C282.31457844 703.29497683 276.33261603 710.36723637 269.9140625 717.21484375 C267.90372765 719.37420973 265.96927247 721.5628842 264.0625 723.8125 C256.55888695 732.45521575 248.21900987 740.5431891 239.4375 747.875 C238.58285156 748.6071875 237.72820313 749.339375 236.84765625 750.09375 C224.0541206 760.94678964 210.57784412 770.84949244 196.4375 779.875 C195.34050781 780.57753906 194.24351562 781.28007813 193.11328125 782.00390625 C169.72210936 796.63607553 144.3712847 808.53204263 118.4375 817.875 C117.18158559 818.3444696 115.92640546 818.8159071 114.671875 819.2890625 C113.26053954 819.81803628 111.8490705 820.34665375 110.4375 820.875 C109.5930835 821.19283447 108.74866699 821.51066895 107.87866211 821.83813477 C65.01379432 837.7421419 18.95270445 844.29032116 -26.55786133 844.13574219 C-29.94819671 844.12433686 -33.3382185 844.13114418 -36.72854328 844.14261246 C-52.10985486 844.18689256 -67.29646342 843.8536148 -82.5625 841.875 C-83.59925369 841.74127991 -83.59925369 841.74127991 -84.6569519 841.6048584 C-89.03512625 841.02400741 -93.39292515 840.34582456 -97.75 839.625 C-98.39926453 839.51828979 -99.04852905 839.41157959 -99.71746826 839.30163574 C-189.73487266 824.41170251 -279.05604742 780.41066577 -338.5625 709.875 C-339.34625 708.98039063 -340.13 708.08578125 -340.9375 707.1640625 C-387.85937798 653.27885233 -418.45402265 584.62337452 -430.375 514.4375 C-430.5699707 513.29112061 -430.76494141 512.14474121 -430.96582031 510.96362305 C-434.10886609 491.32513024 -434.97121751 471.8076712 -434.9375 451.9375 C-434.93695618 450.7271106 -434.93641235 449.51672119 -434.93585205 448.26965332 C-434.89776558 429.80715804 -434.19073373 412.02439595 -430.5625 393.875 C-430.34287598 392.73901367 -430.12325195 391.60302734 -429.89697266 390.43261719 C-418.41246593 332.12415912 -393.08871559 276.08403669 -352.59765625 232.09375 C-350.7670558 230.09800901 -349.00413517 228.06269389 -347.25 226 C-340.01342678 217.70318466 -332.04312082 209.89091947 -323.5625 202.875 C-322.57894531 202.04097656 -321.59539062 201.20695313 -320.58203125 200.34765625 C-291.07321383 175.74285872 -257.36183173 159.09531159 -221.5625 145.875 C-221.5625 145.545 -221.5625 145.215 -221.5625 144.875 C-222.531875 144.66746094 -223.50125 144.45992187 -224.5 144.24609375 C-234.7891325 141.92779929 -244.10875352 138.53622222 -253.5625 133.875 C-254.635 133.35164062 -255.7075 132.82828125 -256.8125 132.2890625 C-272.06824974 124.14471693 -282.01062711 111.10355154 -287.5625 94.875 C-288.43127386 91.94860385 -288.72448183 89.30197343 -288.75 86.25 C-288.76417969 85.47398437 -288.77835938 84.69796875 -288.79296875 83.8984375 C-288.5625 81.875 -288.5625 81.875 -286.5625 79.875 C-282.93068687 80.16465381 -281.45602711 81.78459387 -279.125 84.4375 C-264.58376568 99.51930065 -241.0672759 107.31794422 -220.42578125 107.8203125 C-218.80470807 107.84028748 -217.18361059 107.85833524 -215.5625 107.875 C-214.05888916 107.90352051 -214.05888916 107.90352051 -212.52490234 107.93261719 C-201.12491849 108.13875296 -189.83576334 108.19473718 -178.5 106.875 C-169.8377258 105.89086724 -161.2032892 105.62315516 -152.49295044 105.57543945 C-151.02796555 105.56698804 -149.56299861 105.55353653 -148.09811401 105.53442383 C-121.88404651 105.22780436 -96.97557871 113.27385283 -76.30883789 129.640625 C-74.47024741 131.06650144 -74.47024741 131.06650144 -71.5625 131.875 C-71.38460937 130.55822266 -71.38460937 130.55822266 -71.203125 129.21484375 C-70.58182274 125.97573746 -69.63171914 123.44749051 -68.3125 120.4375 C-64.74457458 111.46080649 -62.99992992 102.0511104 -61.11181641 92.60400391 C-60.75738372 90.84318234 -60.39074663 89.0847526 -60.00927734 87.32958984 C-57.93215588 77.61142319 -57.40796803 67.93728027 -57.4296875 58.01953125 C-57.42873077 57.03305099 -57.42777405 56.04657074 -57.42678833 55.03019714 C-57.42611335 52.96389705 -57.42791958 50.89759475 -57.43212891 48.83129883 C-57.43750425 45.68500998 -57.43215174 42.53886272 -57.42578125 39.39257812 C-57.42644182 37.37239552 -57.42772253 35.35221301 -57.4296875 33.33203125 C-57.42665115 31.9364373 -57.42665115 31.9364373 -57.42355347 30.51264954 C-57.4424607 25.20518451 -57.80353338 20.12829641 -58.5625 14.875 C-58.75619411 12.96257717 -58.90843813 11.04502471 -59 9.125 C-59.06058594 8.22265625 -59.12117188 7.3203125 -59.18359375 6.390625 C-58.5625 3.875 -58.5625 3.875 -55.953125 1.6796875 C-40.25738017 -6.67449926 -15.2057372 -11.21557921 0 0 Z " fill="#E73E2A" transform="translate(658.5625,190.125)"/>
<path d="M0 0 C1.54091497 1.24637388 3.03667422 2.47417422 4.4375 3.875 C4.68441477 9.59835784 4.04260453 14.76608982 3 20.375 C1.06332751 31.85291452 0.63953245 43.25265285 0.4375 54.875 C0.4241864 55.54774963 0.4108728 56.22049927 0.39715576 56.91363525 C-0.07686595 81.00505151 1.32207559 102.69348096 7.91259766 125.97827148 C8.45446735 127.93631132 8.95245052 129.90219142 9.4375 131.875 C10.8915625 131.02228516 10.8915625 131.02228516 12.375 130.15234375 C41.36903854 113.36093736 75.27310768 102.31224792 109.25097656 108.37719727 C113.40097605 109.02551545 117.45446882 109.03739629 121.6484375 109.04296875 C122.53423492 109.04629715 123.42003235 109.04962555 124.33267212 109.05305481 C126.20696497 109.0581049 128.08126676 109.06046373 129.95556641 109.06030273 C132.768714 109.06246632 135.58145411 109.08057872 138.39453125 109.09960938 C154.91804346 109.15262902 169.90553327 107.94012782 185.4375 101.875 C186.09250488 101.62621094 186.74750977 101.37742187 187.42236328 101.12109375 C198.77931089 96.74860026 209.63978058 91.02383685 218.08203125 82.0703125 C220.4375 79.875 220.4375 79.875 224.4375 79.875 C226.89036568 84.78073136 225.94571728 90.99026595 224.56640625 96.10546875 C217.20811866 116.29853995 204.08868215 127.2570137 185.375 136.5625 C169.55858096 143.81307946 152.86936225 146.8323816 135.66967773 148.58129883 C133.48242656 148.81657928 133.48242656 148.81657928 131.59028625 149.38626099 C129.24309989 149.91913393 127.16661547 149.99513493 124.76074219 149.98852539 C123.37976349 149.98841209 123.37976349 149.98841209 121.97088623 149.98829651 C120.98533752 149.98313522 119.99978882 149.97797394 118.984375 149.97265625 C117.96901672 149.9712413 116.95365845 149.96982635 115.90753174 149.96836853 C112.66749108 149.96277516 109.42751975 149.95022385 106.1875 149.9375 C103.98958433 149.93248414 101.79166758 149.92792139 99.59375 149.92382812 C94.20830971 149.9128079 88.82290981 149.89607633 83.4375 149.875 C83.4375 150.535 83.4375 151.195 83.4375 151.875 C84.22447266 152.060625 84.22447266 152.060625 85.02734375 152.25 C108.2311406 158.42738352 130.2711671 173.49874937 147.4375 189.875 C148.01580566 190.42607422 148.59411133 190.97714844 149.18994141 191.54492188 C173.95489863 215.29371698 196.94387983 249.46060396 198.68359375 284.88671875 C198.8473648 294.2602028 198.8473648 294.2602028 196.4375 297.875 C194.2578125 298.49609375 194.2578125 298.49609375 191.4375 297.875 C188.79619727 295.81705732 186.58541391 293.38828908 184.3125 290.9375 C182.96857027 289.54197456 181.62090426 288.15003765 180.26953125 286.76171875 C179.61291504 286.0867334 178.95629883 285.41174805 178.27978516 284.71630859 C174.29659097 280.73522583 169.85799729 277.34867056 165.4375 273.875 C164.22267829 272.87421992 163.01062461 271.87007398 161.80078125 270.86328125 C129.20097688 243.79959904 91.77464282 224.62742502 53.42578125 207.09375 C46.35368983 203.85477869 39.33499673 200.51039676 32.32946777 197.13046265 C31.03785089 196.50730247 29.74578471 195.88507259 28.45324707 195.26382446 C26.66424476 194.40363719 24.87700303 193.53979116 23.08984375 192.67578125 C22.06882568 192.18247314 21.04780762 191.68916504 19.99584961 191.1809082 C17.4375 189.875 17.4375 189.875 14.4375 187.875 C14.48970703 189.24785156 14.48970703 189.24785156 14.54296875 190.6484375 C14.53625653 196.00478669 13.61014133 201.22562466 12.75 206.5 C12.57138428 207.60013428 12.39276855 208.70026855 12.20874023 209.83374023 C8.77573254 230.31228764 3.13492957 249.80418297 -4.0625 269.25 C-4.43020508 270.24878174 -4.79791016 271.24756348 -5.17675781 272.27661133 C-11.34113576 288.65363576 -11.34113576 288.65363576 -14.5625 291.875 C-17.46189833 292.48862928 -18.76438687 292.64954644 -21.5625 291.875 C-25.21232819 289.27022149 -28.22189106 286.11030311 -31.3125 282.875 C-32.19848877 281.96524414 -33.08447754 281.05548828 -33.99731445 280.11816406 C-41.18103924 272.59129079 -47.25709527 264.80912248 -52.5625 255.875 C-52.96500977 255.20484863 -53.36751953 254.53469727 -53.78222656 253.84423828 C-65.83324098 233.59757382 -74.34124075 212.28281719 -77.5625 188.875 C-81.117732 190.24381439 -84.50126566 191.79722577 -87.89453125 193.52734375 C-88.92795654 194.05086426 -89.96138184 194.57438477 -91.02612305 195.11376953 C-92.13125244 195.67435059 -93.23638184 196.23493164 -94.375 196.8125 C-103.09553548 201.20657299 -111.85613514 205.46588935 -120.75 209.5 C-145.1674424 220.59008169 -169.10083116 232.14162333 -191.5625 246.875 C-192.3138623 247.36726074 -193.06522461 247.85952148 -193.83935547 248.36669922 C-204.65531481 255.50100827 -214.89586141 263.10078509 -224.82128906 271.42626953 C-227.32793015 273.51185678 -229.88747742 275.53033915 -232.4375 277.5625 C-237.00934017 281.29685594 -241.13587379 285.36195995 -245.27734375 289.5625 C-248.27620365 292.59724369 -251.10203108 295.36446373 -254.5625 297.875 C-257.22886347 297.81703558 -258.65533191 297.78216809 -260.5625 295.875 C-262.69531159 260.87591146 -245.85672703 229.37357867 -223.41015625 203.3828125 C-221.16185855 200.84606888 -218.87656184 198.35186016 -216.5625 195.875 C-215.80324219 195.06160156 -215.04398437 194.24820313 -214.26171875 193.41015625 C-199.84516903 178.47451636 -182.66453785 167.96548868 -164.4375 158.3125 C-163.45338135 157.7872876 -162.4692627 157.2620752 -161.45532227 156.72094727 C-156.76020701 154.28110286 -152.87432382 152.51067728 -147.5625 151.875 C-147.2325 151.215 -146.9025 150.555 -146.5625 149.875 C-148.22128174 149.89856567 -148.22128174 149.89856567 -149.91357422 149.92260742 C-240.25514051 151.09026992 -240.25514051 151.09026992 -270.28515625 122.1796875 C-271.41244141 121.03886719 -271.41244141 121.03886719 -272.5625 119.875 C-273.28308594 119.17632812 -274.00367188 118.47765625 -274.74609375 117.7578125 C-283.53985486 108.68145415 -288.74121471 96.4166877 -288.828125 83.79296875 C-288.5625 81.875 -288.5625 81.875 -286.5625 79.875 C-282.93068687 80.16465381 -281.45602711 81.78459387 -279.125 84.4375 C-264.58376568 99.51930065 -241.0672759 107.31794422 -220.42578125 107.8203125 C-218.80470807 107.84028748 -217.18361059 107.85833524 -215.5625 107.875 C-214.05888916 107.90352051 -214.05888916 107.90352051 -212.52490234 107.93261719 C-201.12491849 108.13875296 -189.83576334 108.19473718 -178.5 106.875 C-169.8377258 105.89086724 -161.2032892 105.62315516 -152.49295044 105.57543945 C-151.02796555 105.56698804 -149.56299861 105.55353653 -148.09811401 105.53442383 C-121.88404651 105.22780436 -96.97557871 113.27385283 -76.30883789 129.640625 C-74.47024741 131.06650144 -74.47024741 131.06650144 -71.5625 131.875 C-71.38460937 130.55822266 -71.38460937 130.55822266 -71.203125 129.21484375 C-70.58182274 125.97573746 -69.63171914 123.44749051 -68.3125 120.4375 C-64.74457458 111.46080649 -62.99992992 102.0511104 -61.11181641 92.60400391 C-60.75738372 90.84318234 -60.39074663 89.0847526 -60.00927734 87.32958984 C-57.93215588 77.61142319 -57.40796803 67.93728027 -57.4296875 58.01953125 C-57.42873077 57.03305099 -57.42777405 56.04657074 -57.42678833 55.03019714 C-57.42611335 52.96389705 -57.42791958 50.89759475 -57.43212891 48.83129883 C-57.43750425 45.68500998 -57.43215174 42.53886272 -57.42578125 39.39257812 C-57.42644182 37.37239552 -57.42772253 35.35221301 -57.4296875 33.33203125 C-57.42665115 31.9364373 -57.42665115 31.9364373 -57.42355347 30.51264954 C-57.4424607 25.20518451 -57.80353338 20.12829641 -58.5625 14.875 C-58.75619411 12.96257717 -58.90843813 11.04502471 -59 9.125 C-59.06058594 8.22265625 -59.12117187 7.3203125 -59.18359375 6.390625 C-58.5625 3.875 -58.5625 3.875 -55.953125 1.6796875 C-40.25738017 -6.67449926 -15.2057372 -11.21557921 0 0 Z " fill="#2B854E" transform="translate(658.5625,190.125)"/>
<path d="M0 0 C5.18716602 -0.31617012 7.96845326 0.75463329 12.05078125 4.1875 C15.50277006 7.92315151 17.02107884 11.40948314 18.23828125 16.26171875 C18.53847168 17.39694221 18.53847168 17.39694221 18.84472656 18.55509949 C19.59671592 21.42850677 20.32436465 24.30751997 21.05078125 27.1875 C21.3667627 28.42904846 21.68274414 29.67059692 22.00830078 30.94976807 C24.51911723 40.81734491 26.98706655 50.69544745 29.44677734 60.5758667 C30.24908418 63.79587688 31.05400981 67.01522986 31.85896397 70.23457909 C39.42110016 100.48445028 39.42110016 100.48445028 42.5501709 113.92671204 C43.87515403 119.59186725 45.4394855 125.15363006 47.0859375 130.734375 C48.39340265 135.41372395 49.46674925 140.13702743 50.55102539 144.87207031 C51.85406357 150.50180636 53.41626318 156.03013858 55.046875 161.57421875 C56.37910566 166.36921239 57.49717178 171.20503131 58.56835938 176.06445312 C59.37894127 179.65814882 60.33202198 183.12447457 61.53125 186.609375 C63.11056073 191.22092283 64.22873704 195.8738002 65.30078125 200.625 C67.19459622 208.79919631 69.28023522 216.90524159 71.48828125 225 C73.89875451 233.85625731 76.24706058 242.72426795 78.48828125 251.625 C78.87681274 253.15314331 78.87681274 253.15314331 79.27319336 254.7121582 C79.5078833 255.65148193 79.74257324 256.59080566 79.984375 257.55859375 C80.19118896 258.38286865 80.39800293 259.20714355 80.61108398 260.05639648 C81.05078125 262.1875 81.05078125 262.1875 81.05078125 265.1875 C81.71078125 265.1875 82.37078125 265.1875 83.05078125 265.1875 C83.14939453 264.37547119 83.24800781 263.56344238 83.34960938 262.72680664 C84.19947234 258.43695168 85.66143202 254.61384779 87.26953125 250.55859375 C87.59951111 249.71209259 87.92949097 248.86559143 88.26947021 247.99343872 C88.98437968 246.16078057 89.70181869 244.32910759 90.42150879 242.49832153 C92.35690127 237.57390773 94.27321319 232.64207063 96.19140625 227.7109375 C96.58970642 226.68833328 96.98800659 225.66572906 97.39837646 224.61213684 C101.77694454 213.35413047 106.04476079 202.05478865 110.30078125 190.75 C110.65599854 189.80663788 111.01121582 188.86327576 111.37719727 187.8913269 C111.72387451 186.97062408 112.07055176 186.04992126 112.42773438 185.10131836 C113.09892847 183.31883641 113.77015151 181.53636536 114.44140625 179.75390625 C114.75830917 178.9122995 115.0752121 178.07069275 115.40171814 177.20358276 C121.67558059 160.55607951 121.67558059 160.55607951 124.98828125 152.375 C126.71294093 148.08421363 128.36139454 143.76612581 129.98828125 139.4375 C130.24528809 138.75518311 130.50229492 138.07286621 130.76708984 137.36987305 C132.01448566 134.03707323 133.22963952 130.69879258 134.37109375 127.328125 C139.94603391 110.98899221 139.94603391 110.98899221 146.17578125 106.6875 C150.89910624 104.37234727 155.93190215 104.43517989 161.05078125 105.1875 C169.57640856 109.20902232 174.72144458 118.42455683 179.69921875 126.07421875 C180.31544098 127.01248001 180.93166321 127.95074127 181.56655884 128.91743469 C183.5242363 131.90030201 185.47517719 134.88750352 187.42578125 137.875 C189.36676009 140.83745762 191.30909872 143.79902045 193.25152588 146.76052856 C194.4973774 148.66129212 195.74198857 150.5628693 196.98529053 152.46530151 C200.86765802 158.40352857 204.79902578 164.3026194 208.81494141 170.15161133 C210.05078125 172.1875 210.05078125 172.1875 210.05078125 174.1875 C211.2732959 174.17861755 212.49581055 174.16973511 213.75537109 174.1605835 C225.29028484 174.07940997 236.82514044 174.01949235 248.36027527 173.98025131 C254.29027229 173.9593987 260.22003827 173.93112302 266.14990234 173.88574219 C271.87520613 173.84220227 277.60028802 173.8183454 283.32574463 173.80799103 C285.50738008 173.80061434 287.68900373 173.78620939 289.87054443 173.76457977 C292.93219005 173.7354381 295.99292496 173.73154857 299.0546875 173.73339844 C299.95164841 173.71901733 300.84860931 173.70463623 301.77275085 173.68981934 C307.61681941 173.72789349 312.21950345 174.76351804 317.05078125 178.1875 C320.98959708 182.59543119 321.63559598 187.01398653 321.37109375 192.82421875 C320.7256994 197.58596972 319.01178899 200.32024911 315.48828125 203.5 C312.20900434 205.77026863 310.5745626 206.31305539 306.64338684 206.32121277 C305.25348038 206.32761024 305.25348038 206.32761024 303.835495 206.33413696 C302.81575089 206.33368378 301.79600677 206.33323059 300.74536133 206.33276367 C299.67366699 206.33612228 298.60197266 206.3394809 297.49780273 206.34294128 C293.93862767 206.35247534 290.37949956 206.35439586 286.8203125 206.35546875 C284.35129273 206.35868045 281.88227315 206.36204446 279.41325378 206.36555481 C274.22886718 206.3715528 269.04449726 206.37339411 263.86010742 206.37280273 C257.21999 206.37270126 250.57998259 206.38633506 243.93988514 206.40357494 C238.83633433 206.41470177 233.73280936 206.4167217 228.62924767 206.41619301 C226.18166421 206.4173728 223.73408009 206.42179452 221.28650856 206.42952538 C217.85865441 206.43933553 214.43103181 206.43644262 211.00317383 206.43041992 C209.99355087 206.43603943 208.98392792 206.44165894 207.94371033 206.44744873 C201.49130071 206.41867818 195.72712153 206.34311951 190.50854492 202.13989258 C187.27749924 198.25859374 184.49977306 194.16552791 181.7265625 189.94921875 C180.5215132 188.1425589 179.31643422 186.33591885 178.11132812 184.52929688 C176.22650874 181.68836316 174.34402491 178.84589906 172.46264648 176.00268555 C170.63958647 173.25190053 168.8084385 170.50663738 166.9765625 167.76171875 C166.4119783 166.90245285 165.8473941 166.04318695 165.26570129 165.15788269 C164.74143051 164.37319107 164.21715973 163.58849945 163.67700195 162.7800293 C163.2168721 162.08451462 162.75674225 161.38899994 162.28266907 160.67240906 C161.87614609 160.18238907 161.46962311 159.69236908 161.05078125 159.1875 C160.39078125 159.1875 159.73078125 159.1875 159.05078125 159.1875 C156.74995655 163.52905617 155.09582545 167.81904896 153.61328125 172.5 C152.01161541 177.4642592 150.23029937 182.22635894 148.015625 186.94921875 C146.42700739 190.63455434 145.28416264 194.46547633 144.05078125 198.28125 C143.17163564 200.83626694 142.18636284 203.23890219 141.05078125 205.6875 C139.4860643 209.066558 138.25781351 212.45608687 137.11328125 216 C135.80226296 220.05038336 134.35335708 223.96244296 132.67578125 227.875 C130.31440814 233.40177203 128.29716604 239.00865458 126.36962891 244.69799805 C124.96665803 248.78399028 123.40786991 252.77039181 121.72412109 256.74951172 C119.24321826 262.67703265 116.91976599 268.65218098 114.65234375 274.6640625 C114.25429535 275.71419525 113.85624695 276.764328 113.44613647 277.84628296 C112.18749504 281.16765592 110.93147188 284.49001046 109.67578125 287.8125 C108.84264796 290.01439862 108.00931597 292.21622206 107.17578125 294.41796875 C106.56388947 296.03478546 106.56388947 296.03478546 105.93963623 297.68426514 C105.12778529 299.82512904 104.31372339 301.96515591 103.49737549 304.10430908 C101.65779759 308.92546353 99.83926255 313.7498493 98.10058594 318.60839844 C97.79808929 319.43439545 97.49559265 320.26039246 97.18392944 321.11141968 C96.63354939 322.61556259 96.09659567 324.12472889 95.57705688 325.63980103 C93.66505932 330.79157008 91.4458654 333.12338748 87.05078125 336.1875 C81.72623008 337.96235039 75.8808296 338.43863067 70.65625 336.12890625 C62.34064428 330.43603332 61.11075181 320.18538476 58.67578125 310.9375 C58.34416992 309.68767334 58.01255859 308.43784668 57.67089844 307.15014648 C53.49031357 291.30149508 49.56669619 275.3855653 45.61962891 259.47753906 C42.85778492 248.35346961 40.05236441 237.24942329 37.05078125 226.1875 C31.58250908 205.64011422 26.24340082 185.05788325 21.11401367 164.42333984 C19.17847991 156.65376894 17.14484142 148.91600172 15.05078125 141.1875 C13.70895056 136.18974924 12.37640678 131.18957086 11.05078125 126.1875 C10.82632324 125.34155273 10.60186523 124.49560547 10.37060547 123.62402344 C7.53631169 112.9200618 4.76460243 102.20376828 2.17578125 91.4375 C1.96058838 90.55046387 1.74539551 89.66342773 1.52368164 88.74951172 C1.23158813 87.51998779 1.23158813 87.51998779 0.93359375 86.265625 C0.76230957 85.54793945 0.59102539 84.83025391 0.41455078 84.09082031 C0.05078125 82.1875 0.05078125 82.1875 0.05078125 79.1875 C-0.60921875 79.1875 -1.26921875 79.1875 -1.94921875 79.1875 C-2.21734375 80.46625 -2.48546875 81.745 -2.76171875 83.0625 C-3.8384772 88.19780955 -5.41384656 93.17502241 -6.94921875 98.1875 C-7.28655029 99.2919043 -7.62388184 100.39630859 -7.97143555 101.53417969 C-9.10452915 105.23278248 -10.24496203 108.92906298 -11.38671875 112.625 C-11.9600293 114.49381836 -11.9600293 114.49381836 -12.54492188 116.40039062 C-14.56614274 122.937616 -16.70954866 129.39177206 -19.08911133 135.80688477 C-20.23498409 138.97844459 -21.16593875 142.19057781 -22.07421875 145.4375 C-24.51304027 153.95520529 -27.22355944 162.38342194 -29.94921875 170.8125 C-30.15855042 171.46077759 -30.36788208 172.10905518 -30.58355713 172.77697754 C-32.81443845 179.68107841 -35.07438557 186.5744651 -37.3828125 193.453125 C-39.28598034 199.14180449 -41.11833364 204.84934603 -42.921875 210.5703125 C-43.69176574 212.9979437 -44.46255085 215.42528909 -45.23364258 217.85253906 C-45.75767188 219.50930695 -46.27811128 221.16721409 -46.79516602 222.82617188 C-47.55647951 225.26504048 -48.33160003 227.69915136 -49.109375 230.1328125 C-49.33552994 230.86928009 -49.56168488 231.60574768 -49.79469299 232.36453247 C-51.51963699 237.69774403 -53.72835196 241.51540461 -58.3046875 244.9609375 C-61.44168989 246.4159135 -63.80853979 246.72151804 -67.26171875 246.8125 C-68.86466797 246.89371094 -68.86466797 246.89371094 -70.5 246.9765625 C-76.76832547 245.54258544 -80.34769615 241.54918674 -83.88989258 236.32568359 C-85.91005009 232.94752989 -87.82115257 229.52054035 -89.69921875 226.0625 C-90.39271617 224.81317291 -91.08780483 223.56472788 -91.78442383 222.31713867 C-93.18364581 219.8077761 -94.57545414 217.29453566 -95.96142578 214.77783203 C-98.79149196 209.64997318 -101.71549646 204.57629864 -104.63671875 199.5 C-106.41416782 196.39955632 -108.18373917 193.29477101 -109.94921875 190.1875 C-110.42439941 189.36040527 -110.89958008 188.53331055 -111.38916016 187.68115234 C-111.8485498 186.87242676 -112.30793945 186.06370117 -112.78125 185.23046875 C-113.19737549 184.50239014 -113.61350098 183.77431152 -114.04223633 183.02416992 C-114.94921875 181.1875 -114.94921875 181.1875 -114.94921875 179.1875 C-115.60921875 179.1875 -116.26921875 179.1875 -116.94921875 179.1875 C-117.22016357 179.77088135 -117.4911084 180.3542627 -117.77026367 180.95532227 C-118.94270065 183.17515894 -120.23071873 184.95778025 -121.8125 186.90234375 C-122.37001953 187.58876953 -122.92753906 188.27519531 -123.50195312 188.98242188 C-124.08267578 189.68947266 -124.66339844 190.39652344 -125.26171875 191.125 C-126.11540039 192.17977539 -126.11540039 192.17977539 -126.98632812 193.25585938 C-137.11713498 205.66638856 -137.11713498 205.66638856 -142.90271378 206.45314884 C-143.58919872 206.46039699 -144.27568367 206.46764513 -144.98297119 206.47511292 C-145.7762532 206.48797836 -146.56953522 206.50084381 -147.38685608 206.51409912 C-148.24822678 206.51790588 -149.10959747 206.52171265 -149.99707031 206.52563477 C-150.91139328 206.53717087 -151.82571625 206.54870697 -152.76774597 206.56059265 C-155.79179598 206.59489477 -158.81564192 206.613401 -161.83984375 206.62890625 C-163.39150364 206.63926061 -163.39150364 206.63926061 -164.97451019 206.64982414 C-170.44964247 206.68565681 -175.92467172 206.70919733 -181.39990234 206.72290039 C-187.04716988 206.73944403 -192.69318429 206.79786407 -198.34003067 206.86604404 C-202.6896044 206.91088197 -207.03887923 206.92439883 -211.38866425 206.92951775 C-213.46986375 206.93740079 -215.55105408 206.95701396 -217.63202667 206.98874092 C-220.55026392 207.03029599 -223.4653557 207.02733018 -226.38378906 207.01391602 C-227.23706284 207.03594086 -228.09033661 207.0579657 -228.96946716 207.08065796 C-235.03959605 206.98625205 -238.04110441 205.1054529 -242.38901901 200.92162991 C-245.9759277 196.93485471 -246.51187893 192.76218809 -246.3984375 187.53515625 C-245.4138021 182.38936601 -241.91444419 178.66242582 -237.82695007 175.5947113 C-234.18587828 173.81422633 -231.06026597 173.834674 -227.10473633 173.94555664 C-225.9426767 173.95918243 -225.9426767 173.95918243 -224.75714111 173.9730835 C-223.07979493 173.99338146 -221.40251472 174.01987842 -219.72535133 174.05189705 C-217.06298232 174.09819125 -214.40167247 174.11810181 -211.73893738 174.12950134 C-204.17042123 174.16247153 -196.60318154 174.20940752 -189.03588867 174.35522461 C-184.39993755 174.44263062 -179.76676369 174.47082826 -175.13004112 174.46139336 C-173.3713174 174.46883648 -171.61253774 174.49790994 -169.85456276 174.54976082 C-159.50759474 175.11335179 -159.50759474 175.11335179 -150.68127441 170.55822754 C-148.0725838 167.66769498 -145.99716033 164.49678698 -143.94921875 161.1875 C-143.00544635 159.95283383 -142.04793022 158.72830993 -141.06640625 157.5234375 C-140.32648438 156.54632812 -139.5865625 155.56921875 -138.82421875 154.5625 C-137.99670351 153.47870083 -137.16857009 152.39537339 -136.33984375 151.3125 C-135.5509375 150.28125 -134.76203125 149.25 -133.94921875 148.1875 C-132.49851653 146.30658953 -131.04081097 144.43104713 -129.57421875 142.5625 C-128.96835937 141.78648437 -128.3625 141.01046875 -127.73828125 140.2109375 C-123.55994933 135.48522586 -120.34756023 134.38736179 -114.19921875 133.875 C-109.53068226 133.94467965 -105.70558744 135.43335573 -101.94921875 138.1875 C-97.70209001 142.72907254 -94.94458712 148.28545096 -91.94921875 153.6875 C-90.8001326 155.74385486 -89.65037664 157.79983555 -88.5 159.85546875 C-87.91557129 160.90138184 -87.33114258 161.94729492 -86.72900391 163.02490234 C-84.98232651 166.12866901 -83.21175631 169.21721834 -81.4296875 172.30078125 C-80.87603516 173.25984375 -80.32238281 174.21890625 -79.75195312 175.20703125 C-78.68991594 177.04344379 -77.62489527 178.87813472 -76.55664062 180.7109375 C-76.08162109 181.53464844 -75.60660156 182.35835937 -75.1171875 183.20703125 C-74.69719482 183.92995361 -74.27720215 184.65287598 -73.84448242 185.39770508 C-72.94921875 187.1875 -72.94921875 187.1875 -72.94921875 189.1875 C-72.28921875 189.1875 -71.62921875 189.1875 -70.94921875 189.1875 C-70.81040283 188.62232666 -70.67158691 188.05715332 -70.52856445 187.47485352 C-67.83524009 176.84115948 -64.86425288 166.20604583 -60.9375 155.9609375 C-59.65803492 152.37034379 -58.62151717 148.72640294 -57.57421875 145.0625 C-55.67961084 138.45203004 -53.54822236 131.96730771 -51.18017578 125.51123047 C-49.31213723 120.37898577 -47.69766516 115.18634655 -46.10717773 109.96191406 C-44.79988533 105.7007417 -43.45809977 101.45132365 -42.109375 97.203125 C-41.73261879 96.01472015 -41.73261879 96.01472015 -41.34825134 94.80230713 C-40.31122943 91.53156554 -39.27364619 88.26100579 -38.23364258 84.99121094 C-35.27995019 75.70099662 -32.39403142 66.39880915 -29.66786194 57.03912354 C-28.01997833 51.3907462 -26.26392211 45.78408811 -24.44921875 40.1875 C-22.03963962 32.70913335 -19.72365295 25.21555205 -17.63476562 17.640625 C-15.74326791 10.96953628 -13.40798868 5.63068482 -7.94921875 1.1875 C-5.24394061 0.4059752 -2.78272958 0.26767739 0 0 Z " fill="#FDFBFB" transform="translate(587.94921875,539.8125)"/>
<path d="M0 0 C6.33333333 6.33333333 12.66666667 12.66666667 19 19 C18.34 19.66 17.68 20.32 17 21 C14.15046664 18.26637382 11.32341574 15.51057342 8.5 12.75 C7.68917969 11.97269531 6.87835938 11.19539062 6.04296875 10.39453125 C5.27597656 9.64042969 4.50898438 8.88632812 3.71875 8.109375 C3.00654297 7.41811523 2.29433594 6.72685547 1.56054688 6.01464844 C0 4 0 4 0 0 Z " fill="#E84633" transform="translate(327,904)"/>
<path d="M0 0 C4.62 0 9.24 0 14 0 C13.01 0.495 13.01 0.495 12 1 C12 1.66 12 2.32 12 3 C13.4540625 3.4021875 13.4540625 3.4021875 14.9375 3.8125 C15.948125 4.204375 16.95875 4.59625 18 5 C18.33 5.99 18.66 6.98 19 8 C12.54646385 5.94235079 6.2638737 3.57616518 0 1 C0 0.67 0 0.34 0 0 Z " fill="#CE4E34" transform="translate(744,342)"/>
<path d="M0 0 C0.7974855 2.31995782 1.11434828 3.61982909 0.3984375 6 C-1.82693347 10.34881655 -3.83175254 13.22116836 -8 16 C-6.42986223 10.03347646 -3.24970218 5.17090975 0 0 Z " fill="#367F4D" transform="translate(419,415)"/>
<path d="M0 0 C0.76849965 2.25542675 1.15628879 3.53906176 0.37915039 5.83105469 C0.03875732 6.43852539 -0.30163574 7.04599609 -0.65234375 7.671875 C-1.01650391 8.33574219 -1.38066406 8.99960937 -1.75585938 9.68359375 C-2.14580078 10.36550781 -2.53574219 11.04742187 -2.9375 11.75 C-3.32357422 12.44738281 -3.70964844 13.14476562 -4.10742188 13.86328125 C-5.06073637 15.5816012 -6.02895346 17.29163804 -7 19 C-7.66 19 -8.32 19 -9 19 C-7.6077541 14.37324343 -5.70479016 10.35313769 -3.375 6.125 C-2.74335938 4.97257812 -2.11171875 3.82015625 -1.4609375 2.6328125 C-0.97882813 1.76398438 -0.49671875 0.89515625 0 0 Z " fill="#E74B3B" transform="translate(267,476)"/>
<path d="M0 0 C2.31 0.33 4.62 0.66 7 1 C3.8745041 3.64465038 0.91211733 4.84414715 -3 6 C-3 5.34 -3 4.68 -3 4 C-2.34 4 -1.68 4 -1 4 C-0.67 2.68 -0.34 1.36 0 0 Z " fill="#E34630" transform="translate(498,342)"/>
<path d="M0 0 C0 0.99 0 1.98 0 3 C-3.78187881 4.83691257 -5.94568308 5.15837626 -10 4 C-7.25346796 1.25346796 -3.91404908 0 0 0 Z M-10 5 C-8 6 -8 6 -8 6 Z " fill="#EA5743" transform="translate(423,342)"/>
<path d="M0 0 C0.97099482 2.62168601 1.06599958 3.79692438 0.1875 6.5 C-0.84880972 8.68170468 -1.88817428 10.85576468 -3 13 C-4.39943663 10.20112673 -3.54753576 8.87861172 -2.625 5.9375 C-2.34914063 5.03902344 -2.07328125 4.14054688 -1.7890625 3.21484375 C-1 1 -1 1 0 0 Z " fill="#FBE6E3" transform="translate(543,648)"/>
<path d="M0 0 C0.33 0.99 0.66 1.98 1 3 C-0.11878383 4.17262904 -1.24523051 5.33795138 -2.375 6.5 C-3.00148438 7.1496875 -3.62796875 7.799375 -4.2734375 8.46875 C-6 10 -6 10 -8 10 C-6.34908222 5.70761377 -3.26245434 3.1206085 0 0 Z " fill="#E94E3D" transform="translate(317,410)"/>
<path d="M0 0 C0.99 0.33 1.98 0.66 3 1 C3.33 4.3 3.66 7.6 4 11 C3.34 11 2.68 11 2 11 C1.814375 9.63875 1.814375 9.63875 1.625 8.25 C1.07890323 5.41029677 0.42736197 3.47409409 -1 1 C-0.67 0.67 -0.34 0.34 0 0 Z " fill="#BE5035" transform="translate(579,378)"/>
<path d="M0 0 C4.95 1.98 4.95 1.98 10 4 C10 4.66 10 5.32 10 6 C6.05879291 5.43697042 3.2491277 4.3208055 0 2 C0 1.34 0 0.68 0 0 Z " fill="#E94A35" transform="translate(839,345)"/>
<path d="M0 0 C0.99 0.99 1.98 1.98 3 3 C1.68 4.65 0.36 6.3 -1 8 C-1.66 7.67 -2.32 7.34 -3 7 C-1.125 2.25 -1.125 2.25 0 0 Z " fill="#EB4F40" transform="translate(747,697)"/>
<path d="M0 0 C0.66 0 1.32 0 2 0 C2.33 2.31 2.66 4.62 3 7 C1.68 6.67 0.36 6.34 -1 6 C-0.67 4.02 -0.34 2.04 0 0 Z " fill="#EE594B" transform="translate(586,619)"/>
<path d="M0 0 C0 0.99 0 1.98 0 3 C-2.875 3.625 -2.875 3.625 -6 4 C-6.66 3.34 -7.32 2.68 -8 2 C-5.09399739 0.74335022 -3.20395416 0 0 0 Z " fill="#E95B4A" transform="translate(431,339)"/>
<path d="M0 0 C0 3 0 3 0 3 Z M-2 3 C-1.67 3.66 -1.34 4.32 -1 5 C-1.66 5 -2.32 5 -3 5 C-3.33 5.99 -3.66 6.98 -4 8 C-5.65 8 -7.3 8 -9 8 C-4.25 4.125 -4.25 4.125 -2 3 Z " fill="#EB5742" transform="translate(456,738)"/>
<path d="M0 0 C2.52588702 2.36292656 3.88820837 3.66462511 5 7 C4.34 7.66 3.68 8.32 3 9 C0 3.375 0 3.375 0 0 Z " fill="#EB4F3B" transform="translate(483,740)"/>
<path d="M0 0 C0.33 0 0.66 0 1 0 C1.25 3.25 1.25 3.25 1 7 C-0.32 8.32 -1.64 9.64 -3 11 C-2.01 7.37 -1.02 3.74 0 0 Z " fill="#F8C0BA" transform="translate(524,704)"/>
<path d="M0 0 C3.68754757 0.49831724 5.60490662 1.10067643 8 4 C7.01 4.495 7.01 4.495 6 5 C3.96855359 4.06553465 1.96466413 3.06775224 0 2 C0 1.34 0 0.68 0 0 Z " fill="#417C48" transform="translate(692,386)"/>
<path d="M0 0 C-6.75 4 -6.75 4 -9 4 C-8 1 -8 1 -6.1875 -0.25 C-3.66056586 -1.11637742 -2.47778006 -0.88492145 0 0 Z " fill="#D6452F" transform="translate(491,351)"/>
<path d="M0 0 C1.32 0.33 2.64 0.66 4 1 C4 1.99 4 2.98 4 4 C2.02 4 0.04 4 -2 4 C-1.34 2.68 -0.68 1.36 0 0 Z " fill="#459B65" transform="translate(372,270)"/>
<path d="M0 0 C1.89213369 2.38573379 3.02391783 4.07175348 4 7 C3.34 7.66 2.68 8.32 2 9 C-0.29013653 5.5647952 -0.17842973 4.014669 0 0 Z " fill="#ED5A46" transform="translate(501,770)"/>
<path d="M0 0 C0.33 0 0.66 0 1 0 C2.0070238 5.03511899 1.97387813 8.23947038 0 13 C-0.33 13 -0.66 13 -1 13 C-1.07654536 8.48382401 -1.10228696 4.40914783 0 0 Z " fill="#B55832" transform="translate(672,385)"/>
<path d="M0 0 C3.37462715 0.54723683 5.08235 1.0549 8 3 C8 3.66 8 4.32 8 5 C4.62496331 3.8141763 2.35277269 2.72426311 0 0 Z " fill="#D24634" transform="translate(776,357)"/>
</svg>
