<?xml version="1.0" encoding="UTF-8" standalone="no"?><!DOCTYPE svg PUBLIC "-//W3C//DTD SVG 1.1//EN" "http://www.w3.org/Graphics/SVG/1.1/DTD/svg11.dtd"><svg xmlns="http://www.w3.org/2000/svg" xmlns:xlink="http://www.w3.org/1999/xlink" version="1.1" width="512" height="512" viewBox="0 0 512 512">
<desc>Created with SVGMaker Editor 3.0.0</desc>
<defs>
</defs>
<path transform="translate(0,0)" style="fill: rgb(231,62,42)" stroke-linecap="round" d="M275.9395 21.205C276.8137 21.9121 277.6623 22.6087 278.457 23.4034 278.5971 26.6504 278.233 29.5822 277.6415 32.7643 276.5427 39.2761 276.3023 45.7435 276.1877 52.3372 276.1801 52.7189 276.1726 53.1006 276.1648 53.4938 275.8959 67.1616 276.6895 79.4661 280.4285 92.6762 280.736 93.7871 281.0185 94.9024 281.2937 96.0216 282.1186 95.5379 282.1186 95.5379 282.9602 95.0443 299.4094 85.518 318.6442 79.2498 337.9208 82.6906 340.2753 83.0584 342.5749 83.0652 344.9543 83.0683 345.4568 83.0702 345.9594 83.0721 346.4771 83.074 347.5405 83.0769 348.6038 83.0783 349.6672 83.0782 351.2632 83.0794 352.8589 83.0897 354.4549 83.1005 363.8291 83.1305 372.332 82.4427 381.1437 79.0017 381.7011 78.79 381.7011 78.79 382.2698 78.574 388.7129 76.0934 394.8744 72.8455 399.664 67.7659 401.0003 66.5205 401.0003 66.5205 403.2696 66.5205 404.6612 69.3036 404.1253 72.8265 403.3427 75.7285 399.0414 87.5325 391.031 94.0441 379.9646 99.1997 375.6076 101.1106 370.9985 102.2522 366.3932 103.3969 368.0217 104.7308 369.4785 105.4798 371.4703 106.1449 389.0443 112.2951 405.5759 121.5681 419.9887 133.328 420.7838 133.9734 421.5888 134.6065 422.3948 135.2383 429.4164 140.805 436.0494 147.059 441.8481 153.8893 442.5567 154.6934 442.5567 154.6934 443.2797 155.5137 450.3197 163.5613 456.1851 172.3162 461.5351 181.5577 462.174 182.6549 462.8255 183.7424 463.4864 184.8265 472.2784 199.5513 478.0789 216.1442 482.1285 232.7482 482.2349 233.1667 482.3413 233.5853 482.4509 234.0166 483.2428 237.1647 483.8598 240.3265 484.3978 243.5274 484.5018 244.1426 484.6059 244.7579 484.713 245.3917 490.0383 278.5779 487.5976 315.1453 475.741 346.7692 475.3048 347.959 474.9092 349.1573 474.5183 350.3628 466.8134 373.6604 454.8709 395.3066 440.1461 414.8611 439.8734 415.2236 439.6007 415.5862 439.3197 415.9597 436.105 420.2053 432.7113 424.2176 429.0698 428.1025 427.9293 429.3276 426.8318 430.5692 425.7501 431.8455 421.493 436.7488 416.7616 441.3373 411.7796 445.4969 411.2947 445.9123 410.8098 446.3277 410.3103 446.7557 403.0521 452.9129 395.4066 458.531 387.3844 463.6515 386.762 464.05 386.1397 464.4486 385.4984 464.8593 372.2279 473.1605 357.8456 479.9095 343.1326 485.21 342.4201 485.4763 341.708 485.7438 340.9963 486.0122 340.1956 486.3123 339.3948 486.6122 338.594 486.912 338.1149 487.0923 337.6359 487.2726 337.1423 487.4584 312.8238 496.4812 286.6919 500.1962 260.8724 500.1085 258.949 500.102 257.0257 500.1059 255.1023 500.1124 246.376 500.1375 237.7602 499.9484 229.0993 498.8259 228.5111 498.7501 228.5111 498.7501 227.9111 498.6727 225.4272 498.3431 222.9549 497.9584 220.483 497.5494 220.1146 497.4889 219.7463 497.4284 219.3668 497.366 168.2972 488.9185 117.6226 463.9554 83.8628 423.9384 83.4182 423.4308 82.9735 422.9233 82.5154 422.4004 55.8952 391.8297 38.538 352.8794 31.7748 313.0608 31.6642 312.4104 31.5536 311.7601 31.4396 311.09 29.6565 299.9485 29.1673 288.8756 29.1864 277.6027 29.1867 276.916 29.187 276.2293 29.1873 275.5218 29.2089 265.0475 29.6101 254.9588 31.6685 244.6621 31.7931 244.0176 31.9177 243.3731 32.046 242.7091 38.5615 209.629 52.9285 177.8357 75.9003 152.8787 76.9388 151.7465 77.939 150.5918 78.9341 149.4216 83.0397 144.7145 87.5615 140.2824 92.3728 136.3021 92.9308 135.8289 93.4888 135.3557 94.0637 134.8682 110.8049 120.9092 129.9304 111.4645 150.2404 103.9642 150.2404 103.777 150.2404 103.5898 150.2404 103.3969 149.6905 103.2792 149.1405 103.1614 148.5739 103.0401 142.7366 101.7249 137.4493 99.8007 132.0859 97.1563 131.4774 96.8594 130.8689 96.5624 130.242 96.2565 121.587 91.636 115.9464 84.2374 112.7967 75.0304 112.3038 73.3702 112.1374 71.8687 112.1229 70.1372 112.1149 69.6969 112.1069 69.2567 112.0986 68.8031 112.2293 67.6551 112.2293 67.6551 113.364 66.5205 115.4244 66.6848 116.261 67.6038 117.5835 69.1089 125.8332 77.6653 139.1748 82.0897 150.8853 82.3747 151.805 82.386 152.7247 82.3963 153.6444 82.4057 154.4975 82.4219 154.4975 82.4219 155.3677 82.4384 161.8353 82.5553 168.24 82.5871 174.6711 81.8384 179.5854 81.28 184.484 81.1282 189.4257 81.1011 190.2568 81.0963 191.0879 81.0887 191.919 81.0778 206.791 80.9039 220.9223 85.4686 232.6472 94.754 233.6903 95.5629 233.6903 95.5629 235.3399 96.0216 235.4409 95.2746 235.4409 95.2746 235.5438 94.5124 235.8963 92.6748 236.4353 91.2404 237.1838 89.5328 239.2079 84.44 240.1977 79.1016 241.2689 73.742 241.47 72.743 241.678 71.7454 241.8944 70.7497 243.0728 65.2363 243.3702 59.7478 243.3579 54.1212 243.3584 53.5615 243.359 53.0019 243.3595 52.4253 243.3599 51.253 243.3589 50.0807 243.3565 48.9084 243.3535 47.1235 243.3565 45.3386 243.3601 43.5536 243.3597 42.4075 243.359 41.2613 243.3579 40.1152 243.3596 39.3235 243.3596 39.3235 243.3614 38.5157 243.3507 35.5046 243.1458 32.6244 242.7152 29.644 242.6053 28.559 242.519 27.4712 242.467 26.3819 242.4326 25.8699 242.3983 25.358 242.3629 24.8306 242.7152 23.4034 242.7152 23.4034 244.1956 22.1579 253.1003 17.4183 267.3128 14.842 275.9395 21.205Z"/>
<path transform="translate(0,0)" style="fill: rgb(43,133,78)" stroke-linecap="round" d="M275.9395 21.2052C276.8137 21.9123 277.6623 22.6089 278.457 23.4036 278.5971 26.6507 278.233 29.5825 277.6415 32.7646 276.5427 39.2763 276.3023 45.7438 276.1877 52.3375 276.1801 52.7191 276.1726 53.1008 276.1648 53.494 275.8959 67.1618 276.6895 79.4663 280.4285 92.6765 280.736 93.7873 281.0185 94.9026 281.2937 96.0219 282.1186 95.5381 282.1186 95.5381 282.9602 95.0446 299.4094 85.5183 318.6442 79.25 337.9208 82.6909 340.2753 83.0587 342.5749 83.0654 344.9543 83.0686 345.4568 83.0705 345.9594 83.0724 346.4771 83.0743 347.5405 83.0772 348.6038 83.0785 349.6672 83.0784 351.2632 83.0796 352.8589 83.0899 354.4549 83.1007 363.8291 83.1308 372.332 82.4429 381.1437 79.002 381.5153 78.8608 381.887 78.7197 382.2698 78.5743 388.713 76.0936 394.8744 72.8458 399.664 67.7662 401.0003 66.5207 401.0003 66.5207 403.2696 66.5207 404.6612 69.3039 404.1253 72.8267 403.3427 75.7287 399.1682 87.1849 391.7251 93.4019 381.1083 98.6812 372.1352 102.7947 362.6669 104.5076 352.909 105.4999 351.6681 105.6333 351.6681 105.6333 350.5946 105.9565 349.263 106.2588 348.0849 106.302 346.72 106.2982 345.9365 106.2982 345.9365 106.2982 345.1372 106.2981 344.5781 106.2952 344.019 106.2922 343.4429 106.2892 342.8669 106.2884 342.2908 106.2876 341.6973 106.2868 339.8591 106.2836 338.021 106.2765 336.1828 106.2693 334.9359 106.2664 333.689 106.2638 332.442 106.2615 329.3867 106.2553 326.3314 106.2458 323.2761 106.2338 323.2761 106.6082 323.2761 106.9827 323.2761 107.3685 323.7226 107.4738 323.7226 107.4738 324.178 107.5812 337.3423 111.0858 349.8462 119.6363 359.5852 128.927 359.9133 129.2396 360.2414 129.5523 360.5794 129.8744 374.6293 143.3478 387.6717 162.7317 388.6586 182.83 388.7516 188.1479 388.7516 188.1479 387.3844 190.1987 386.1478 190.551 386.1478 190.551 384.5477 190.1987 383.0492 189.0311 381.795 187.6532 380.5055 186.2628 379.743 185.4711 378.9785 184.6814 378.2118 183.8938 377.8393 183.5108 377.4668 183.1279 377.083 182.7333 374.8232 180.4747 372.305 178.5534 369.7971 176.5827 369.1079 176.015 368.4203 175.4453 367.7339 174.8741 349.2391 159.5201 328.006 148.6431 306.2495 138.6957 302.2373 136.8582 298.2554 134.9608 294.281 133.0433 293.5482 132.6897 292.8152 132.3367 292.0819 131.9842 291.0669 131.4962 290.053 131.0062 289.039 130.516 288.4598 130.2361 287.8805 129.9562 287.2837 129.6679 285.8323 128.927 285.8323 128.927 284.1303 127.7924 284.1599 128.5712 284.1599 128.5712 284.1902 129.3658 284.1863 132.4046 283.6609 135.3666 283.1729 138.3589 283.0716 138.983 282.9703 139.6072 282.8659 140.2502 280.9182 151.8683 277.718 162.9266 273.6347 173.9588 273.4261 174.5255 273.2175 175.0921 273.0026 175.6759 269.5053 184.9671 269.5053 184.9671 267.6777 186.7947 266.0328 187.1428 265.2939 187.2341 263.7064 186.7947 261.6358 185.3169 259.9284 183.5242 258.175 181.6887 257.6723 181.1726 257.1697 180.6564 256.6518 180.1247 252.5762 175.8544 249.1291 171.4394 246.1192 166.3708 245.8908 165.9906 245.6625 165.6104 245.4272 165.2187 238.5903 153.7321 233.7635 141.6396 231.936 128.3597 229.919 129.1362 227.9994 130.0175 226.0743 130.9991 225.488 131.2961 224.9017 131.5931 224.2976 131.8991 223.6707 132.2172 223.0437 132.5352 222.3977 132.8629 217.4503 135.3557 212.4801 137.7722 207.4344 140.0609 193.5816 146.3526 180.0035 152.9061 167.2603 161.2648 166.8341 161.5441 166.4078 161.8234 165.9686 162.1111 159.8324 166.1586 154.0226 170.4702 148.3916 175.1935 146.9695 176.3767 145.5174 177.5219 144.0707 178.6748 141.477 180.7934 139.1359 183.0996 136.7863 185.4827 135.085 187.2044 133.4818 188.7743 131.5185 190.1987 130.0058 190.1658 129.1966 190.146 128.1146 189.064 126.9046 169.208 136.4576 151.3357 149.1922 136.5904 150.4677 135.1512 151.7642 133.7362 153.0771 132.331 153.5078 131.8695 153.9386 131.4081 154.3824 130.9326 162.5613 122.4592 172.3084 116.4971 182.6492 111.0207 183.2075 110.7227 183.7658 110.4247 184.341 110.1177 187.0047 108.7335 189.2093 107.7291 192.2229 107.3685 192.4101 106.994 192.5973 106.6196 192.7902 106.2338 191.8491 106.2472 191.8491 106.2472 190.889 106.2608 139.6355 106.9233 139.6355 106.9233 122.5986 90.5214 121.9591 89.8742 121.9591 89.8742 121.3066 89.2139 120.8978 88.8175 120.489 88.4212 120.0678 88.0128 115.0788 82.8635 112.1279 75.9053 112.0786 68.7435 112.2293 67.6554 112.2293 67.6554 113.364 66.5207 115.4244 66.685 116.261 67.6041 117.5835 69.1092 125.8332 77.6655 139.1748 82.0899 150.8853 82.3749 151.805 82.3863 152.7247 82.3965 153.6444 82.406 154.4975 82.4221 154.4975 82.4221 155.3677 82.4386 161.8353 82.5556 168.24 82.5873 174.6711 81.8386 179.5854 81.2803 184.484 81.1284 189.4257 81.1013 190.2568 81.0965 191.0879 81.0889 191.919 81.0781 206.791 80.9041 220.9223 85.4689 232.6472 94.7542 233.6903 95.5632 233.6903 95.5632 235.3399 96.0219 235.4409 95.2748 235.4409 95.2748 235.5438 94.5127 235.8963 92.675 236.4353 91.2407 237.1838 89.533 239.208 84.4403 240.1977 79.1019 241.2689 73.7423 241.47 72.7433 241.678 71.7457 241.8944 70.7499 243.0728 65.2365 243.3702 59.7481 243.3579 54.1214 243.3584 53.5618 243.359 53.0021 243.3595 52.4255 243.3599 51.2532 243.3589 50.081 243.3565 48.9087 243.3535 47.1237 243.3565 45.3388 243.3601 43.5538 243.3597 42.4077 243.359 41.2616 243.3579 40.1155 243.3596 39.3237 243.3596 39.3237 243.3614 38.516 243.3507 35.5049 243.1458 32.6246 242.7152 29.6443 242.6053 28.5593 242.519 27.4714 242.467 26.3821 242.4326 25.8702 242.3983 25.3583 242.3629 24.8308 242.7152 23.4036 242.7152 23.4036 244.1956 22.1582 253.1003 17.4186 267.3128 14.8423 275.9395 21.2052Z"/>
<path transform="translate(0,0)" style="fill: rgb(253,251,251)" stroke-linecap="round" d="M238.0399 209.4498C241.1462 209.2605 242.8117 209.9017 245.2564 211.9575 247.3235 214.1945 248.2328 216.2823 248.9617 219.188 249.1414 219.8678 249.1414 219.8678 249.3248 220.5614 249.7752 222.2821 250.2109 224.0061 250.6459 225.7308 250.8351 226.4743 251.0244 227.2178 251.2193 227.9838 252.7229 233.8929 254.2008 239.8083 255.6738 245.7251 256.1542 247.6534 256.6363 249.5812 257.1183 251.5091 261.6468 269.6239 261.6468 269.6239 263.5206 277.6737 264.3141 281.0662 265.2509 284.3968 266.2368 287.7388 267.0198 290.541 267.6625 293.3695 268.3118 296.205 269.0922 299.5763 270.0277 302.8869 271.0041 306.2069 271.8019 309.0784 272.4715 311.9743 273.1129 314.8843 273.5984 317.0363 274.1691 319.1121 274.8872 321.199 275.833 323.9606 276.5026 326.7469 277.1446 329.5921 278.2787 334.4871 279.5276 339.3414 280.8499 344.1888 282.2934 349.4923 283.6997 354.8028 285.0418 360.1329 285.2745 361.0481 285.2745 361.0481 285.5118 361.9817 285.6524 362.5442 285.7929 363.1067 285.9377 363.6862 286.0616 364.1798 286.1854 364.6734 286.313 365.182 286.5763 366.4582 286.5763 366.4582 286.5763 368.2547 286.9716 368.2547 287.3668 368.2547 287.774 368.2547 287.833 367.7684 287.8921 367.2822 287.9529 366.7812 288.4619 364.2122 289.3374 361.9228 290.3004 359.4943 290.498 358.9874 290.6956 358.4805 290.8992 357.9582 291.3273 356.8608 291.7569 355.7639 292.1879 354.6675 293.3469 351.7186 294.4944 348.7652 295.6431 345.8123 295.8817 345.1999 296.1202 344.5875 296.3659 343.9566 298.988 337.2148 301.5437 330.4483 304.0924 323.6786 304.3051 323.1136 304.5178 322.5487 304.737 321.9667 304.9446 321.4153 305.1522 320.864 305.3661 320.2959 305.768 319.2285 306.17 318.1611 306.572 317.0937 306.7617 316.5897 306.9515 316.0857 307.147 315.5664 310.9041 305.5972 310.9041 305.5972 312.8878 300.6981 313.9206 298.1286 314.9078 295.5427 315.882 292.9506 316.036 292.542 316.1899 292.1334 316.3484 291.7124 317.0954 289.7166 317.8231 287.7175 318.5067 285.699 321.8451 275.9145 321.8451 275.9145 325.5758 273.3386 328.4043 271.9522 331.4181 271.9898 334.4835 272.4403 339.589 274.8486 342.6701 280.3672 345.6509 284.9481 346.02 285.51 346.389 286.0719 346.7692 286.6507 347.9415 288.437 349.1098 290.2259 350.2779 292.0149 351.4403 293.7889 352.6034 295.5624 353.7666 297.3359 354.5127 298.4742 355.258 299.6129 356.0025 300.7522 358.3275 304.3082 360.6817 307.8408 363.0866 311.3434 363.8267 312.5626 363.8267 312.5626 363.8267 313.7603 364.5588 313.755 365.2909 313.7496 366.0451 313.7442 372.9527 313.6955 379.8602 313.6597 386.7679 313.6362 390.3191 313.6237 393.87 313.6067 397.4211 313.5796 400.8496 313.5535 404.278 313.5392 407.7067 313.533 409.0131 313.5286 410.3195 313.52 411.6259 313.507 413.4594 313.4896 415.2923 313.4872 417.1258 313.4883 417.6629 313.4797 418.2 313.4711 418.7535 313.4622 422.2531 313.485 425.0094 314.1052 427.9026 316.1556 430.2613 318.7953 430.6481 321.4413 430.4897 324.9207 430.1032 327.7722 429.0769 329.4096 426.9669 331.3138 425.0031 332.6733 424.0243 332.9983 421.6702 333.0032 420.8379 333.0071 420.8379 333.0071 419.9887 333.011 419.3781 333.0107 418.7674 333.0104 418.1382 333.0101 417.4964 333.0122 416.8547 333.0142 416.1935 333.0162 414.0621 333.022 411.9307 333.0231 409.7993 333.0237 408.3208 333.0257 406.8422 333.0277 405.3637 333.0298 402.2591 333.0334 399.1545 333.0345 396.0499 333.0341 392.0735 333.0341 388.0972 333.0422 384.1208 333.0525 381.0646 333.0592 378.0084 333.0604 374.9522 333.0601 373.4865 333.0608 372.0208 333.0635 370.5551 333.0681 368.5023 333.074 366.4497 333.0722 364.397 333.0686 363.7924 333.072 363.1878 333.0754 362.5649 333.0788 358.7009 333.0616 355.2491 333.0163 352.124 330.4993 350.1891 328.175 348.5257 325.7239 346.865 323.199 346.1434 322.1171 345.4217 321.0352 344.7001 319.9534 343.5714 318.2521 342.444 316.5499 341.3174 314.8473 340.2257 313.2 339.1291 311.556 338.0321 309.9123 337.694 309.3977 337.3559 308.8831 337.0076 308.353 336.6936 307.8831 336.3797 307.4132 336.0562 306.929 335.7807 306.5125 335.5051 306.096 335.2212 305.6669 334.9778 305.3735 334.7343 305.08 334.4835 304.7777 334.0883 304.7777 333.693 304.7777 333.2858 304.7777 331.908 307.3776 330.9175 309.9466 330.0296 312.7497 329.0705 315.7225 328.0038 318.5743 326.6775 321.4025 325.7262 323.6094 325.0418 325.9035 324.3032 328.1886 323.7768 329.7186 323.1867 331.1574 322.5067 332.6237 321.5697 334.6473 320.8342 336.677 320.1488 338.7993 319.3637 341.2248 318.496 343.5675 317.4914 345.9105 316.0773 349.2201 314.8693 352.5778 313.7151 355.9848 312.8749 358.4316 311.9414 360.8189 310.9331 363.2017 309.4475 366.7513 308.0561 370.3295 306.6983 373.9297 306.4599 374.5585 306.2215 375.1874 305.976 375.8353 305.2222 377.8243 304.4701 379.8138 303.7181 381.8035 303.2192 383.1221 302.7202 384.4406 302.221 385.7591 301.8546 386.7273 301.8546 386.7273 301.4808 387.7151 300.9946 388.9971 300.5071 390.2786 300.0182 391.5597 298.9166 394.4468 297.8276 397.3358 296.7864 400.2453 296.6053 400.7399 296.4241 401.2346 296.2375 401.7442 295.9079 402.6449 295.5864 403.5487 295.2752 404.456 294.1303 407.5411 292.8013 408.9374 290.1694 410.7724 286.9808 411.8352 283.4803 412.1204 280.3517 410.7373 275.3719 407.3281 274.6354 401.1896 273.1773 395.6516 272.9787 394.9032 272.7801 394.1548 272.5755 393.3836 270.072 383.8928 267.7224 374.3617 265.3587 364.8354 263.7048 358.1738 262.0248 351.5243 260.2274 344.9 256.9527 332.5954 253.7555 320.2699 250.6838 307.9131 249.5247 303.2604 248.3069 298.6267 247.0529 293.9986 246.2493 291.0057 245.4514 288.0114 244.6575 285.016 244.5231 284.5094 244.3887 284.0028 244.2502 283.4808 242.5529 277.0709 240.8931 270.6535 239.3428 264.2063 239.2139 263.6751 239.0851 263.1439 238.9523 262.5966 238.7774 261.8603 238.7774 261.8603 238.5989 261.1091 238.4964 260.6794 238.3938 260.2496 238.2881 259.8068 238.0703 258.667 238.0703 258.667 238.0703 256.8705 237.675 256.8705 237.2798 256.8705 236.8726 256.8705 236.712 257.6362 236.5515 258.402 236.386 259.191 235.7412 262.2662 234.7978 265.2468 233.8784 268.2484 233.6764 268.9098 233.4744 269.5712 233.2663 270.2526 232.5877 272.4674 231.9048 274.6809 231.221 276.8942 230.8777 278.0133 230.8777 278.0133 230.5275 279.155 229.3171 283.0698 228.0335 286.9348 226.6085 290.7764 225.9224 292.6757 225.3649 294.5992 224.8209 296.5436 223.3605 301.6444 221.7373 306.6915 220.1051 311.7392 219.9797 312.1274 219.8544 312.5156 219.7252 312.9156 218.3893 317.05 217.0359 321.1781 215.6535 325.2973 214.5139 328.7039 213.4166 332.1218 212.3365 335.5478 211.8755 337.0015 211.4139 338.4551 210.9522 339.9086 210.6383 340.9008 210.3267 341.8936 210.017 342.8871 209.5611 344.3475 209.097 345.8052 208.6312 347.2626 208.4958 347.7036 208.3604 348.1446 208.2208 348.599 207.1878 351.7927 205.8652 354.0789 203.1247 356.1422 201.2461 357.0135 199.8288 357.1965 197.7609 357.251 196.8009 357.2997 196.8009 357.2997 195.8216 357.3493 192.0679 356.4906 189.9245 354.0991 187.8032 350.9711 186.5935 348.9481 185.4491 346.8959 184.3244 344.8251 183.9091 344.077 183.4929 343.3293 183.0757 342.5822 182.2378 341.0795 181.4043 339.5745 180.5743 338.0674 178.8796 334.9966 177.1286 331.9583 175.3792 328.9184 174.3148 327.0617 173.2551 325.2025 172.1979 323.3417 171.9133 322.8464 171.6288 322.3511 171.3356 321.8408 171.0605 321.3565 170.7854 320.8722 170.5019 320.3732 170.2527 319.9372 170.0036 319.5012 169.7468 319.052 169.2037 317.9522 169.2037 317.9522 169.2037 316.7545 168.8084 316.7545 168.4132 316.7545 168.006 316.7545 167.8437 317.1038 167.6815 317.4532 167.5143 317.8131 166.8122 319.1424 166.0409 320.2099 165.0937 321.3744 164.7598 321.7855 164.4259 322.1966 164.082 322.6201 163.7342 323.0435 163.3864 323.4669 163.0281 323.9031 162.5169 324.5348 162.5169 324.5348 161.9954 325.1792 155.9286 332.6111 155.9286 332.6111 152.464 333.0822 152.0529 333.0866 151.6418 333.0909 151.2183 333.0954 150.7432 333.1031 150.2682 333.1108 149.7787 333.1187 149.2629 333.121 148.7471 333.1233 148.2156 333.1256 147.6681 333.1326 147.1206 333.1395 146.5564 333.1466 144.7455 333.1671 142.9347 333.1782 141.1237 333.1875 140.1945 333.1937 140.1945 333.1937 139.2465 333.2 135.9678 333.2215 132.6891 333.2356 129.4104 333.2438 126.0285 333.2537 122.6475 333.2887 119.2659 333.3295 116.6612 333.3563 114.0567 333.3644 111.4519 333.3675 110.2056 333.3722 108.9593 333.384 107.7131 333.403 105.9656 333.4279 104.2199 333.4261 102.4722 333.418 101.9612 333.4312 101.4502 333.4444 100.9238 333.458 97.2888 333.4015 95.4913 332.2752 92.8876 329.7697 90.7396 327.3823 90.4187 324.8835 90.4866 321.7534 91.0763 318.6719 93.1718 316.44 95.6196 314.603 97.8 313.5367 99.6717 313.549 102.0405 313.6154 102.7364 313.6235 102.7364 313.6235 103.4463 313.6319 104.4508 313.644 105.4552 313.6599 106.4595 313.6791 108.0539 313.7068 109.6476 313.7187 111.2421 313.7255 115.7745 313.7453 120.306 313.7734 124.8376 313.8607 127.6138 313.9131 130.3883 313.9299 133.165 313.9243 134.2182 313.9288 135.2714 313.9462 136.3242 313.9772 142.5203 314.3147 142.5203 314.3147 147.8059 311.5869 149.3681 309.856 150.6109 307.9571 151.8373 305.9754 152.4025 305.236 152.9759 304.5027 153.5637 303.7812 154.0068 303.196 154.4499 302.6109 154.9064 302.008 155.4019 301.359 155.8978 300.7103 156.3941 300.0618 156.8665 299.4443 157.339 298.8267 157.8257 298.1904 158.6945 297.0641 159.5674 295.9409 160.4456 294.822 160.8085 294.3572 161.1713 293.8925 161.5451 293.4138 164.0472 290.5838 165.9709 289.9264 169.6528 289.6195 172.4485 289.6613 174.7391 290.5527 176.9886 292.202 179.5319 294.9217 181.1833 298.2491 182.977 301.4841 183.6651 302.7155 184.3536 303.9467 185.0425 305.1777 185.3925 305.804 185.7425 306.4303 186.1031 307.0757 187.149 308.9343 188.2093 310.7839 189.2765 312.6304 189.6081 313.2048 189.9396 313.7791 190.2812 314.3708 190.9172 315.4705 191.555 316.5692 192.1947 317.6668 192.4792 318.16 192.7636 318.6533 193.0567 319.1615 193.3082 319.5944 193.5597 320.0274 193.8188 320.4734 194.355 321.5452 194.355 321.5452 194.355 322.7429 194.7502 322.7429 195.1454 322.7429 195.5526 322.7429 195.6358 322.4044 195.7189 322.066 195.8045 321.7173 197.4174 315.3494 199.1966 308.9807 201.5481 302.8455 202.3143 300.6953 202.935 298.5131 203.5621 296.3191 204.6967 292.3604 205.9731 288.4771 207.3911 284.611 208.5098 281.5376 209.4766 278.428 210.429 275.2994 211.2119 272.7477 212.0154 270.2029 212.8231 267.659 213.0487 266.9473 213.0487 266.9473 213.2789 266.2212 213.8999 264.2626 214.5212 262.3041 215.144 260.346 216.9128 254.7826 218.641 249.2121 220.2736 243.6071 221.2604 240.2247 222.312 236.8672 223.3987 233.5157 224.8417 229.0374 226.2286 224.5499 227.4795 220.0137 228.6122 216.0188 230.0106 212.8217 233.2796 210.161 234.8996 209.6929 236.3735 209.6101 238.0399 209.4498Z"/>
<path transform="translate(0,0)" style="fill: rgb(206,78,52)" stroke-linecap="round" d="M324.4106 107.3685C327.0317 107.3685 329.6528 107.3685 332.3533 107.3685 331.7916 107.6493 331.7916 107.6493 331.2186 107.9358 331.2186 108.3102 331.2186 108.6847 331.2186 109.0705 332.0435 109.2986 332.0435 109.2986 332.8851 109.5314 333.4585 109.7537 334.0318 109.9761 334.6226 110.2051 334.8098 110.7668 334.997 111.3284 335.1899 111.9071 331.5286 110.7397 327.9643 109.3973 324.4106 107.9358 324.4106 107.7486 324.4106 107.5614 324.4106 107.3685Z"/>
<path transform="translate(0,0)" style="fill: rgb(54,127,77)" stroke-linecap="round" d="M140.0287 148.7835C140.4811 150.0997 140.6609 150.8371 140.2547 152.1875 138.9922 154.6547 137.8548 156.2842 135.49 157.8608 136.3808 154.4758 138.185 151.7171 140.0287 148.7835Z"/>
<path transform="translate(0,0)" style="fill: rgb(231,75,59)" stroke-linecap="round" d="M53.7947 183.3906C54.2306 184.6701 54.4506 185.3984 54.0098 186.6987 53.8166 187.0433 53.6235 187.388 53.4246 187.743 53.218 188.1197 53.0114 188.4963 52.7985 188.8843 52.5773 189.2712 52.356 189.6581 52.1281 190.0567 51.9091 190.4523 51.6901 190.848 51.4644 191.2556 50.9235 192.2305 50.3742 193.2006 49.8233 194.1698 49.4489 194.1698 49.0745 194.1698 48.6887 194.1698 49.4785 191.5449 50.5582 189.2642 51.8799 186.8655 52.2383 186.2116 52.5966 185.5578 52.9658 184.8842 53.2393 184.3913 53.5128 183.8984 53.7947 183.3906Z"/>
<path transform="translate(0,0)" style="fill: rgb(227,70,48)" stroke-linecap="round" d="M184.8477 107.3685C186.1582 107.5557 187.4687 107.7429 188.819 107.9358 187.0458 109.4362 185.3651 110.1167 183.1457 110.7724 183.1457 110.398 183.1457 110.0236 183.1457 109.6378 183.5201 109.6378 183.8946 109.6378 184.2803 109.6378 184.4676 108.8889 184.6548 108.14 184.8477 107.3685Z"/>
<path transform="translate(0,0)" style="fill: rgb(234,87,67)" stroke-linecap="round" d="M142.298 107.3685C142.298 107.9301 142.298 108.4918 142.298 109.0704 140.1524 110.1126 138.9248 110.295 136.6247 109.6378 138.1829 108.0796 140.0774 107.3685 142.298 107.3685ZM136.6247 110.2051C137.7594 110.7724 137.7594 110.7724 137.7594 110.7724Z"/>
<path transform="translate(0,0)" style="fill: rgb(233,78,61)" stroke-linecap="round" d="M82.1611 145.9468C82.3483 146.5085 82.5355 147.0702 82.7284 147.6488 82.0937 148.3141 81.4546 148.9752 80.8137 149.6345 80.4583 150.0031 80.1028 150.3717 79.7367 150.7514 78.7571 151.6201 78.7571 151.6201 77.6225 151.6201 78.5591 149.1849 80.3102 147.7173 82.1611 145.9468Z"/>
<path transform="translate(0,0)" style="fill: rgb(190,80,53)" stroke-linecap="round" d="M230.8013 127.7923C231.363 127.9795 231.9246 128.1667 232.5033 128.3596 232.6905 130.2318 232.8778 132.104 233.0707 134.0329 232.6962 134.0329 232.3218 134.0329 231.936 134.0329 231.8307 133.2607 231.8307 133.2607 231.7232 132.4728 231.4134 130.8617 231.0438 129.7633 230.234 128.3596 230.4212 128.1724 230.6084 127.9852 230.8013 127.7923Z"/>
<path transform="translate(0,0)" style="fill: rgb(233,74,53)" stroke-linecap="round" d="M378.3069 109.0705C381.1152 110.1938 381.1152 110.1938 383.9802 111.3398 383.9802 111.7142 383.9802 112.0886 383.9802 112.4744 381.7442 112.155 380.1502 111.5218 378.3069 110.2051 378.3069 109.8307 378.3069 109.4562 378.3069 109.0705Z"/>
<path transform="translate(0,0)" style="fill: rgb(233,91,74)" stroke-linecap="round" d="M146.8366 105.6665C146.8366 106.2281 146.8366 106.7898 146.8366 107.3685 145.2056 107.723 145.2056 107.723 143.4326 107.9358 143.0582 107.5614 142.6838 107.1869 142.298 106.8011 143.9467 106.0882 145.0189 105.6665 146.8366 105.6665Z"/>
<path transform="translate(0,0)" style="fill: rgb(65,124,72)" stroke-linecap="round" d="M294.9095 132.3309C297.0016 132.6137 298.0894 132.9554 299.4482 134.6003 298.8865 134.8811 298.8865 134.8811 298.3135 135.1676 297.161 134.6374 296.0241 134.0714 294.9095 133.4656 294.9095 133.0912 294.9095 132.7167 294.9095 132.3309Z"/>
<path transform="translate(0,0)" style="fill: rgb(214,69,47)" stroke-linecap="round" d="M180.8764 112.4744C177.0469 114.7437 177.0469 114.7437 175.7704 114.7437 176.3377 113.0418 176.3377 113.0418 177.366 112.3326 178.7996 111.8411 179.4707 111.9724 180.8764 112.4744Z"/>
<path transform="translate(0,0)" style="fill: rgb(69,155,101)" stroke-linecap="round" d="M113.3642 66.5208C114.1131 66.708 114.862 66.8952 115.6335 67.0881 115.6335 67.6497 115.6335 68.2114 115.6335 68.7901 114.5102 68.7901 113.3869 68.7901 112.2296 68.7901 112.604 68.0412 112.9784 67.2923 113.3642 66.5208Z"/>
<path transform="translate(0,0)" style="fill: rgb(181,88,50)" stroke-linecap="round" d="M283.5629 131.7636C283.7502 131.7636 283.9374 131.7636 284.1303 131.7636 284.7016 134.6202 284.6828 136.4381 283.5629 139.1389 283.3757 139.1389 283.1885 139.1389 282.9956 139.1389 282.9522 136.5767 282.9376 134.265 283.5629 131.7636Z"/>
<path transform="translate(0,0)" style="fill: rgb(210,70,52)" stroke-linecap="round" d="M342.5652 115.8784C344.4797 116.1889 345.4485 116.4769 347.1038 117.5804 347.1038 117.9548 347.1038 118.3293 347.1038 118.715 345.189 118.0423 343.9 117.4239 342.5652 115.8784Z"/>
</svg>